<?xml version="1.0" encoding="UTF-8" standalone="no"?><!DOCTYPE svg PUBLIC "-//W3C//DTD SVG 1.1//EN" "http://www.w3.org/Graphics/SVG/1.1/DTD/svg11.dtd"><svg width="100%" height="100%" viewBox="0 0 1335 629" version="1.1" xmlns="http://www.w3.org/2000/svg" xmlns:xlink="http://www.w3.org/1999/xlink" xml:space="preserve" xmlns:serif="http://www.serif.com/" style="fill-rule:evenodd;clip-rule:evenodd;stroke-linejoin:round;stroke-miterlimit:2;"><g id="Capa-1" serif:id="Capa 1"><path d="M629.175,542.617c0.404,-0.65 0.808,-1.296 1.212,-1.938c-0.325,-0.179 -0.649,-0.366 -0.975,-0.554c-0.024,0.758 -0.045,1.521 -0.07,2.275c0.004,0 -0.167,0.217 -0.167,0.217" style="fill:#3c3b49;"/><path d="M325.521,132.125c-0,0 -29.513,0 -67.446,14.758l-29.521,-74.837c0,-0 48.621,-24.242 96.967,-22.134" style="fill:#faa33a;fill-rule:nonzero;"/><path d="M327.293,236.36c-0,0 -11.533,-2.383 -31.029,6.767l-26.65,-66.035c-0,-0 15.516,-13.129 56.883,-15.117" style="fill:#3c3b49;fill-rule:nonzero;"/><path d="M326.099,314.736l-21.663,-47.217c0,0 6.284,-4.471 22.196,-6.066" style="fill:#faa33a;fill-rule:nonzero;"/><path d="M233.787,161.867c0,-0 -30.037,15.679 -63.25,45.587l-56.625,-63.625c0,0 40.483,-43.808 90.942,-60.462" style="fill:#faa33a;fill-rule:nonzero;"/><path d="M274.913,254.374c-0,0 -18.759,5.596 -38.713,22.7l-50.154,-50.8c-0,0 24.696,-27.166 59.7,-40.432" style="fill:#3c3b49;fill-rule:nonzero;"/><path d="M311.52,355.039l-56.355,-55.971c0,0 11.996,-10.991 27.713,-18.816" style="fill:#faa33a;fill-rule:nonzero;"/><path d="M150.32,226.192c-0,0 -28.105,26.171 -45.392,67.054l-72.938,-31.996c0,0 18.105,-56.179 55.984,-93.437" style="fill:#faa33a;fill-rule:nonzero;"/><path d="M218.699,296.433c0,0 -15.079,13.25 -25.462,37.388l-63.65,-26.254c-0,-0 14.987,-33.946 40.583,-61.259" style="fill:#3c3b49;fill-rule:nonzero;"/><path d="M292.686,375.193l-74.1,-29.492c0,0 5.925,-15.154 16.6,-29.104" style="fill:#faa33a;fill-rule:nonzero;"/><path d="M92.998,321.092c-0,-0 -10.884,26.275 -11.142,66.821l-81.942,2.395c0,0 3.808,-57.45 23.071,-101.833" style="fill:#faa33a;fill-rule:nonzero;"/><path d="M185.37,359.243c0,-0 -6.071,10.075 -4.275,31.416l-72.187,0.442c-0,-0 -0.98,-20.058 11.137,-59.667" style="fill:#3c3b49;fill-rule:nonzero;"/><path d="M254.496,391.103l-50.121,-1.596c0,0 -1.512,-4.383 2.384,-19.883" style="fill:#faa33a;fill-rule:nonzero;"/><path d="M442.688,470.294l-0,6.671l-27.266,0l-0,18.35l24.841,0l-0,6.663l-24.841,-0l-0,12.645c-0,5.105 2.161,7.525 7.441,7.525l21.125,0l-0,6.667l-22.163,0c-10.124,0 -14.199,-5.021 -14.199,-14.192l-0,-44.329l35.062,0Z" style="fill:#3c3b49;fill-rule:nonzero;"/><path d="M465.646,470.294l34.279,46.229l0,-46.229l7.363,0l-0,58.521l-6.842,0l-34.279,-46.137l-0,46.137l-7.45,0l-0,-58.521l6.929,0Z" style="fill:#3c3b49;fill-rule:nonzero;"/><path d="M560.288,470.294l-0,6.671l-27.267,0l-0,18.35l24.842,0l-0,6.663l-24.842,-0l-0,12.645c-0,5.105 2.162,7.525 7.442,7.525l21.125,0l-0,6.667l-22.163,0c-10.129,0 -14.2,-5.021 -14.2,-14.192l0,-44.329l35.063,0Z" style="fill:#3c3b49;fill-rule:nonzero;"/><path d="M584.025,500.335l10.388,0c8.654,0 14.366,-3.554 14.366,-11.687c0,-8.142 -5.712,-11.683 -14.366,-11.683l-10.388,-0l0,23.37Zm0,6.667l0,21.813l-7.708,-0l-0,-58.521l18.096,-0c14.108,-0 22.42,6.671 22.42,18.354c0,9.433 -5.458,15.321 -14.887,17.054l16.792,23.113l-8.83,-0l-15.754,-21.813l-10.129,0Z" style="fill:#3c3b49;fill-rule:nonzero;"/><path d="M681.775,497.133l0,25.621c-3.987,2.596 -12.983,7.275 -25.1,7.275c-17.75,0 -30.475,-11.083 -30.475,-30.471c0,-21.812 15.925,-30.475 32.379,-30.475c7.963,0 15.579,1.992 21.721,5.284l0,7.012c-5.446,-3.112 -13.5,-5.629 -21.642,-5.629c-12.55,0 -24.408,6.146 -24.408,23.808c0,15.409 9.433,23.8 22.596,23.8c7.446,0 13.242,-1.729 17.658,-4.15l0,-15.579l-18.35,0l0,-6.496l25.621,0Z" style="fill:#3c3b49;fill-rule:nonzero;"/><path d="M698.6,470.294l17.054,28.05l17.05,-28.05l7.796,0l-21.471,35.059l0,23.462l-7.625,0l0,-23.462l-21.291,-35.059l8.487,0Z" style="fill:#3c3b49;fill-rule:nonzero;"/><path d="M796.875,469.081c6.063,0 11.254,1.129 14.975,3.034l0,6.837c-3.721,-1.904 -8.913,-3.2 -14.542,-3.2c-13.504,0 -21.983,9.004 -21.983,23.804c0,14.8 8.567,23.8 21.983,23.8c5.63,0 10.913,-1.387 15.15,-3.716l0,6.929c-4.15,2.075 -8.912,3.458 -15.408,3.458c-18.617,0 -29.862,-12.379 -29.862,-30.471c-0,-18.091 11.337,-30.475 29.687,-30.475" style="fill:#3c3b49;fill-rule:nonzero;"/><path d="M850.046,475.75c-13.946,0 -22.25,9.346 -22.25,23.809c-0,14.454 8.304,23.8 22.25,23.8c13.933,-0 22.25,-9.346 22.25,-23.8c-0,-14.463 -8.317,-23.809 -22.25,-23.809m-0,54.275c-18.096,0 -30.296,-11.858 -30.296,-30.466c0,-18.621 12.2,-30.479 30.296,-30.479c18.091,-0 30.296,11.858 30.296,30.479c-0,18.608 -12.205,30.466 -30.296,30.466" style="fill:#3c3b49;fill-rule:nonzero;"/><path d="M901.575,470.294l34.283,46.229l0,-46.229l7.359,0l-0,58.521l-6.842,0l-34.279,-46.137l-0,46.137l-7.446,0l-0,-58.521l6.925,0Z" style="fill:#3c3b49;fill-rule:nonzero;"/><path d="M960.725,470.294l19.217,49.004l19.141,-49.004l7.613,0l-23.721,58.521l-7.183,0l-23.204,-58.521l8.137,0Z" style="fill:#3c3b49;fill-rule:nonzero;"/><path d="M1050.35,470.294l-0,6.671l-27.275,0l-0,18.35l24.846,0l-0,6.663l-24.846,-0l-0,12.645c-0,5.105 2.167,7.525 7.446,7.525l21.129,0l-0,6.667l-22.167,0c-10.129,0 -14.196,-5.021 -14.196,-14.192l0,-44.329l35.063,0Z" style="fill:#3c3b49;fill-rule:nonzero;"/><path d="M1074.08,500.335l10.392,0c8.654,0 14.366,-3.554 14.366,-11.687c0,-8.142 -5.712,-11.683 -14.366,-11.683l-10.392,-0l0,23.37Zm0,6.667l0,21.813l-7.704,-0l0,-58.521l18.096,-0c14.112,-0 22.417,6.671 22.417,18.354c-0,9.433 -5.455,15.321 -14.888,17.054l16.796,23.113l-8.834,-0l-15.754,-21.813l-10.129,0Z" style="fill:#3c3b49;fill-rule:nonzero;"/><path d="M1137.72,475.75c-6.142,0 -12.458,2.517 -12.458,9.609c-0,13.504 29.516,6.666 29.516,27.096c0,12.895 -10.037,17.57 -20.517,17.57c-6.058,0 -12.458,-1.733 -16.708,-4.237l0,-6.842c4.325,2.425 10.3,4.413 16.538,4.413c6.75,-0 12.9,-2.596 12.9,-10.213c-0,-14.546 -29.521,-6.929 -29.521,-27.354c-0,-11.171 9.258,-16.712 20.25,-16.712c6.583,-0 11.429,1.304 15.241,3.291l0,7.013c-3.983,-2.163 -8.833,-3.634 -15.241,-3.634" style="fill:#3c3b49;fill-rule:nonzero;"/><rect x="1169.33" y="470.293" width="7.708" height="58.521" style="fill:#3c3b49;"/><path d="M1221.64,475.75c-13.938,0 -22.25,9.346 -22.25,23.809c-0,14.454 8.312,23.8 22.25,23.8c13.933,-0 22.249,-9.346 22.249,-23.8c0,-14.463 -8.316,-23.809 -22.249,-23.809m-0,54.275c-18.096,0 -30.296,-11.858 -30.296,-30.466c-0,-18.621 12.2,-30.479 30.296,-30.479c18.091,-0 30.295,11.858 30.295,30.479c0,18.608 -12.204,30.466 -30.295,30.466" style="fill:#3c3b49;fill-rule:nonzero;"/><path d="M1273.17,470.294l34.283,46.229l0,-46.229l7.358,0l0,58.521l-6.833,0l-34.283,-46.137l-0,46.137l-7.45,0l-0,-58.521l6.925,0Z" style="fill:#3c3b49;fill-rule:nonzero;"/><path d="M453.463,598.871l-0,6.071l-7.142,-0c-0,15.262 -7.958,23.466 -21.992,23.466c-13.783,0 -21.495,-7.133 -21.495,-17.391c-0,-8.288 5.004,-12.8 11.158,-14.442c-4.925,-1.637 -9.025,-5.175 -9.025,-11.733c0,-9.763 9.025,-14.196 19.283,-14.196c5.496,-0 10.583,1.312 14.196,3.117l-0,6.729c-3.363,-1.884 -8.779,-3.525 -14.196,-3.525c-6.567,-0 -11.65,2.541 -11.65,8.204c0,5.908 5.083,8.45 11.487,8.45l3.28,-0l-0,6.154l-3.117,0c-7.55,0 -13.704,3.283 -13.704,10.913c0,7.633 5.334,11.404 14.117,11.404c10.254,-0 14.849,-5.904 14.849,-17.15l-7.712,-0l-0,-6.071l21.662,-0Z" style="fill:#3c3b49;fill-rule:nonzero;"/><path d="M507.767,570.644c5.741,-0 10.671,1.071 14.196,2.871l-0,6.483c-3.525,-1.804 -8.455,-3.029 -13.788,-3.029c-12.8,-0 -20.837,8.529 -20.837,22.562c-0,14.029 8.12,22.563 20.837,22.563c5.333,-0 10.342,-1.313 14.358,-3.529l0,6.566c-3.937,1.971 -8.445,3.275 -14.6,3.275c-17.645,0 -28.312,-11.725 -28.312,-28.875c-0,-17.154 10.75,-28.887 28.146,-28.887" style="fill:#3c3b49;fill-rule:nonzero;"/><path d="M558.142,576.967c-13.209,0 -21.088,8.854 -21.088,22.563c0,13.7 7.879,22.562 21.088,22.562c13.212,0 21.091,-8.862 21.091,-22.562c0,-13.709 -7.879,-22.563 -21.091,-22.563m-0,51.442c-17.15,-0 -28.721,-11.238 -28.721,-28.879c-0,-17.642 11.571,-28.888 28.721,-28.888c17.145,0 28.721,11.246 28.721,28.888c-0,17.641 -11.576,28.879 -28.721,28.879" style="fill:#3c3b49;fill-rule:nonzero;"/><path d="M626.646,616.433l-19.121,-32.496l0,43.329l-7.137,-0l-0,-55.475l7.629,-0l21.995,37.175l21.988,-37.175l7.629,-0l0,55.475l-7.217,-0l0,-43.329l-19.041,32.496l-6.725,-0Z" style="fill:#3c3b49;fill-rule:nonzero;"/><path d="M684.642,620.941l8.533,-0c8.617,-0 14.279,-2.784 14.279,-9.346c0,-5.996 -5.175,-9.438 -14.279,-9.438l-8.533,0l-0,18.784Zm-0,-24.942l8.125,0c8.208,0 13.458,-2.787 13.458,-9.191c0,-6.317 -4.679,-8.7 -13.05,-8.7l-8.533,-0l-0,17.891Zm8.616,-24.208c13.788,-0 20.517,5.667 20.517,14.525c0,7.467 -5.254,11.162 -9.85,12.479c5.496,1.058 11.163,4.917 11.163,12.8c-0,9.929 -8.13,15.671 -21.83,15.671l-15.92,-0l-0,-55.475l15.92,-0Z" style="fill:#3c3b49;fill-rule:nonzero;"/><path d="M734.271,571.791l-0,35.859c-0,10.091 5.991,14.441 13.875,14.441c7.954,0 13.95,-4.35 13.95,-14.441l-0,-35.859l7.137,0l0,36.025c0,13.709 -9.525,20.592 -21.087,20.592c-11.571,-0 -21.175,-6.883 -21.175,-20.592l-0,-36.025l7.3,0Z" style="fill:#3c3b49;fill-rule:nonzero;"/><path d="M801.717,576.967c-5.825,0 -11.821,2.375 -11.821,9.104c-0,12.8 27.987,6.321 27.987,25.679c0,12.23 -9.516,16.659 -19.45,16.659c-5.741,-0 -11.812,-1.638 -15.837,-4.013l-0,-6.487c4.104,2.296 9.767,4.183 15.675,4.183c6.396,0 12.225,-2.462 12.225,-9.683c-0,-13.788 -27.975,-6.563 -27.975,-25.929c-0,-10.588 8.775,-15.838 19.196,-15.838c6.237,0 10.833,1.238 14.446,3.117l-0,6.65c-3.78,-2.05 -8.375,-3.442 -14.446,-3.442" style="fill:#3c3b49;fill-rule:nonzero;"/><path d="M869.154,571.791l0,6.317l-18.708,-0l-0,49.154l-7.388,0l0,-49.154l-18.708,-0l0,-6.317l44.804,0Z" style="fill:#3c3b49;fill-rule:nonzero;"/><rect x="879.567" y="571.793" width="7.3" height="55.471" style="fill:#3c3b49;"/><path d="M929.121,576.967c-13.204,0 -21.088,8.854 -21.088,22.563c0,13.7 7.884,22.562 21.088,22.562c13.217,0 21.092,-8.862 21.092,-22.562c-0,-13.709 -7.875,-22.563 -21.092,-22.563m-0,51.442c-17.146,-0 -28.721,-11.238 -28.721,-28.879c0,-17.642 11.575,-28.888 28.721,-28.888c17.15,0 28.725,11.246 28.725,28.888c-0,17.641 -11.575,28.879 -28.725,28.879" style="fill:#3c3b49;fill-rule:nonzero;"/><path d="M977.938,571.791l32.491,43.825l0,-43.825l6.975,0l0,55.471l-6.483,0l-32.492,-43.733l0,43.733l-7.054,0l-0,-55.471l6.562,0Z" style="fill:#3c3b49;fill-rule:nonzero;"/><path d="M1104.2,597.231l-0,24.292c-3.771,2.458 -12.308,6.883 -23.792,6.883c-16.825,-0 -28.891,-10.496 -28.891,-28.875c-0,-20.679 15.104,-28.888 30.695,-28.888c7.55,0 14.771,1.884 20.592,5.005l0,6.654c-5.163,-2.959 -12.8,-5.334 -20.512,-5.334c-11.9,0 -23.138,5.825 -23.138,22.563c0,14.604 8.946,22.562 21.417,22.562c7.058,0 12.554,-1.641 16.746,-3.937l-0,-14.767l-17.405,0l0,-6.158l24.288,-0Z" style="fill:#3c3b49;fill-rule:nonzero;"/><path d="M1128.23,600.266l9.846,0c8.208,0 13.621,-3.366 13.621,-11.079c-0,-7.708 -5.413,-11.079 -13.621,-11.079l-9.846,-0l0,22.158Zm0,6.321l0,20.675l-7.3,0l0,-55.471l17.146,0c13.375,0 21.258,6.317 21.258,17.396c0,8.946 -5.171,14.525 -14.116,16.171l15.912,21.904l-8.358,0l-14.938,-20.675l-9.604,0Z" style="fill:#3c3b49;fill-rule:nonzero;"/><path d="M1196.9,576.967c-13.213,0 -21.092,8.854 -21.092,22.563c0,13.7 7.88,22.562 21.092,22.562c13.212,0 21.092,-8.862 21.092,-22.562c-0,-13.709 -7.88,-22.563 -21.092,-22.563m-0,51.442c-17.15,-0 -28.721,-11.238 -28.721,-28.879c0,-17.642 11.571,-28.888 28.721,-28.888c17.15,0 28.721,11.246 28.721,28.888c-0,17.641 -11.571,28.879 -28.721,28.879" style="fill:#3c3b49;fill-rule:nonzero;"/><path d="M1245.05,571.791l0,35.859c0,10.091 5.992,14.441 13.871,14.441c7.954,0 13.95,-4.35 13.95,-14.441l-0,-35.859l7.137,0l0,36.025c0,13.709 -9.52,20.592 -21.087,20.592c-11.571,-0 -21.171,-6.883 -21.171,-20.592l0,-36.025l7.3,0Z" style="fill:#3c3b49;fill-rule:nonzero;"/><path d="M1303.63,600.266l9.85,0c8.2,0 13.621,-3.366 13.621,-11.079c0,-7.708 -5.421,-11.079 -13.621,-11.079l-9.85,-0l0,22.158Zm9.85,-28.475c13.371,0 21.25,6.317 21.25,17.396c0,11.404 -7.958,17.4 -21.25,17.4l-9.85,0l0,20.675l-7.3,0l0,-55.471l17.15,0Z" style="fill:#3c3b49;fill-rule:nonzero;"/><path d="M179.698,413.686c-0,-0 -2.2,10.646 6.246,28.633l-60.942,24.596c0,0 -12.112,-14.312 -13.95,-52.492" style="fill:#d13c2e;fill-rule:nonzero;"/><path d="M252.03,414.789l-43.575,19.996c0,-0 -4.129,-5.8 -5.6,-20.488" style="fill:#f15a42;fill-rule:nonzero;"/><path d="M196.32,462.03c-0,0 5.162,17.304 20.945,35.725l-46.87,46.279c-0,0 -25.08,-22.779 -37.317,-55.096" style="fill:#d13c2e;fill-rule:nonzero;"/><path d="M289.225,428.245l-51.65,52.004c0,0 -10.154,-11.066 -17.37,-25.571" style="fill:#f15a42;fill-rule:nonzero;"/><path d="M235.138,513.91c-0,-0 12.229,13.908 34.496,23.491l-24.225,58.738c-0,-0 -31.325,-13.829 -56.529,-37.454" style="fill:#d13c2e;fill-rule:nonzero;"/><path d="M307.823,445.624l-27.225,68.387c-0,0 -13.975,-5.466 -26.846,-15.321" style="fill:#f15a42;fill-rule:nonzero;"/><path d="M293.097,544.663c0,0 9.3,5.6 28.996,3.946l0.412,66.617c0,-0 -18.516,0.904 -55.066,-10.275" style="fill:#d13c2e;fill-rule:nonzero;"/><path d="M322.506,480.873l-1.475,46.25c-0,0 -4.046,1.4 -18.346,-2.204" style="fill:#f15a42;fill-rule:nonzero;"/><path d="M588.542,52.563l-0,39.929l-163.334,-0l0,109.925l148.813,-0l-0,39.923l-148.813,0l0,75.705c0,30.591 12.959,45.112 44.588,45.112l126.521,0l-0,39.921l-132.742,-0c-60.66,-0 -85.035,-30.071 -85.035,-85.033l-0,-265.482l210.002,-0Z" style="fill:#3c3b49;fill-rule:nonzero;"/><path d="M780.742,47.425c36.3,0 90.458,11.313 117.887,30.617l-28.179,28.491c-22.292,-11.408 -53.408,-19.183 -87.108,-19.183c-80.892,0 -131.704,53.925 -131.704,142.591c-0,88.666 51.333,142.596 131.704,142.596c33.7,-0 65.333,-8.3 90.741,-22.3l0,41.483c-24.891,12.442 -53.408,20.738 -92.295,20.738c-111.488,-0 -178.896,-74.146 -178.896,-182.517c-0,-108.374 67.929,-182.516 177.85,-182.516" style="fill:#d13c2e;fill-rule:nonzero;"/><path d="M1322.6,219.661l0,153.484c-23.854,15.558 -77.775,43.558 -150.375,43.558c-106.296,-0 -182.521,-66.375 -182.521,-182.521c0,-130.665 95.413,-182.519 193.929,-182.519c47.709,-0 93.338,11.925 130.155,31.629l-0,42c-32.675,-18.667 -80.888,-33.7 -129.638,-33.7c-75.183,-0 -146.217,36.812 -146.217,142.59c0,92.292 56.513,142.592 135.325,142.592c44.6,-0 79.338,-10.371 105.784,-24.892l-0,-93.333l-109.925,-0l-0,-38.888l153.483,0Z" style="fill:#3c3b49;fill-rule:nonzero;"/><path d="M864.588,11.796c11.858,-7.217 25.779,-11.858 44.85,-11.858c31.191,-0 58.004,15.72 58.004,52.583c-0,32.221 -18.567,50.779 -43.046,72.433l-37.125,32.996l81.971,0l-0,19.846l-110.067,-0l0,-18.042l53.358,-52.071c19.592,-19.07 30.934,-33.254 30.934,-54.387c-0,-23.454 -15.979,-33.513 -36.346,-33.513c-16.496,0 -32.221,6.705 -42.533,14.438l-0,-22.425Z" style="fill:#faa33a;fill-rule:nonzero;"/></g></svg>