<?xml version="1.0" encoding="UTF-8" standalone="no"?><!DOCTYPE svg PUBLIC "-//W3C//DTD SVG 1.1//EN" "http://www.w3.org/Graphics/SVG/1.1/DTD/svg11.dtd"><svg width="100%" height="100%" viewBox="0 0 496 241" version="1.1" xmlns="http://www.w3.org/2000/svg" xmlns:xlink="http://www.w3.org/1999/xlink" xml:space="preserve" xmlns:serif="http://www.serif.com/" style="fill-rule:evenodd;clip-rule:evenodd;stroke-linejoin:round;stroke-miterlimit:2;"><path d="M11.183,239.982l0,-0.759c-3,0 -3.595,-1.283 -3.595,-2.441l-0,-9.813l5.266,0c2.675,0 4.954,0.754 4.954,3.875l0.838,0l-0,-9.346l-0.838,0c0,3.117 -2.279,3.834 -4.954,3.834l-5.266,-0l-0,-8.575c-0,-0.963 0.316,-1.563 1.716,-1.563l5.267,0c2.796,0 5.192,-0.321 5.712,4.067l0.95,-0l0,-5.709l-21.233,0l0,0.763c2.921,0 3.513,1.275 3.513,2.442l-0,20.025c-0,1.158 -0.592,2.441 -3.513,2.441l0,0.759l11.183,-0Zm33.692,-0l1.796,-6.746l-1.121,-0c-2.117,5.062 -5.15,5.1 -8.342,5.1l-5.266,-0c-0.796,-0 -1.038,-0.838 -1.038,-1.554l0,-9.813l5.629,0c2.675,0 4.946,0.754 4.946,3.875l0.842,0l-0,-9.346l-0.842,0c0,3.117 -2.271,3.834 -4.946,3.834l-5.629,-0l0,-8.575c0,-1.005 0.754,-1.563 1.754,-1.563l6.43,0c2.787,0 4.116,1.921 4.55,4.067l0.87,-0l0,-5.709l-21.191,0l-0,0.763c2.916,-0 3.516,1.275 3.516,2.442l0,20.025c0,1.158 -0.6,2.441 -3.516,2.441l-0,0.759l21.558,-0Zm14.892,-0c10.7,-0 16.087,-5.03 16.087,-13.134c0,-8.983 -6.183,-13.296 -16.404,-13.296l-10.304,0l-0,0.763c2.921,-0 3.517,1.275 3.517,2.442l-0.001,20.025c0,1.158 -0.595,2.441 -3.516,2.441l-0,0.759l10.621,-0Zm-3.025,-22.909c-0,-1.921 0.358,-2.033 2.27,-2.033c7.38,-0 12.492,4.025 12.492,11.846c0,7.429 -4.712,11.816 -12.85,11.45c-0.879,-0.038 -1.912,-0.479 -1.912,-1.95l-0,-19.313Zm43.591,22.909l1.792,-6.746l-1.113,-0c-2.116,5.062 -5.154,5.1 -8.341,5.1l-5.275,-0c-0.792,-0 -1.034,-0.838 -1.034,-1.554l0,-9.813l5.63,0c2.666,0 4.941,0.754 4.941,3.875l0.842,0l-0,-9.346l-0.842,0c0,3.117 -2.275,3.834 -4.941,3.834l-5.63,-0l0,-8.575c0,-1.005 0.759,-1.563 1.759,-1.563l6.421,0c2.8,0 4.108,1.921 4.554,4.067l0.879,-0l-0,-5.709l-21.196,0l0,0.763c2.913,-0 3.508,1.275 3.508,2.442l0,20.025c0,1.158 -0.595,2.441 -3.508,2.441l0,0.759l21.554,-0Zm7.35,-3.2c0,1.158 -0.596,2.441 -3.391,2.441l-0,0.759l10.97,-0l0,-0.759c-2.912,0 -3.508,-1.283 -3.508,-2.441l0,-9.017l2.238,-0.079l9.495,12.296l6.43,-0l-0,-0.759c-1.8,-0.121 -2.717,-0.925 -3.8,-2.241l-7.9,-9.738c3.758,-0.512 7.225,-2.471 7.225,-6.704c-0,-4.671 -3.996,-6.988 -10.613,-6.988l-10.537,0l-0,0.763c2.795,-0 3.391,1.275 3.391,2.442l0,20.025Zm4.071,-19.825c0,-1.884 0.358,-1.884 2.954,-1.884c3.588,0 6.388,1.559 6.388,5.509c-0,4.312 -3.559,5.508 -9.342,5.704l0,-9.329Zm28.508,-0.2c0,-1.167 0.6,-2.442 3.913,-2.442l0,-0.763l-11.896,0l0,0.763c3.317,-0 3.913,1.275 3.913,2.442l-0,20.025c-0,1.158 -0.596,2.441 -3.913,2.441l0,0.759l11.896,-0l-0,-0.759c-3.313,0 -3.913,-1.283 -3.913,-2.441l0,-20.025Zm30.296,-3.725l-0.837,-0c-1.321,3.237 -3.313,-0.038 -8.784,-0.038c-8.016,0 -13.645,5.871 -13.645,13.813c-0,8.741 5.941,13.729 13.729,13.729c3.825,-0 7.937,-2 10.371,-4.988l-0.68,-0.8c-2.75,2.713 -5.425,3.996 -9.333,3.996c-6.542,0 -9.462,-6.029 -9.462,-11.621c-0,-7.183 2.837,-12.491 9.42,-12.491c4.55,-0 7.463,2.995 8.621,7.383l0.959,-0l-0.359,-8.983Zm17.571,-0.038c-7.775,-0.158 -13.087,5.838 -13.087,13.771c-0,8.458 6.066,13.771 13.087,13.771c7.983,-0 13.058,-6.063 13.058,-13.771c0,-8.496 -6.141,-14.092 -13.058,-13.771m0,1.438c6.192,-0.08 8.55,6.066 8.55,12.333c0.192,4.275 -1.446,11.771 -8.55,12.337c-4.704,0.359 -8.537,-4.116 -8.537,-12.337c-0,-7.617 2.595,-11.929 8.537,-12.333m28.654,26.104l0.871,-0c0.4,-2.913 3.279,-0 7.421,-0c5.429,-0 8.425,-3.713 8.425,-7.3c-0,-4.8 -3.671,-6.504 -9.1,-9.779c-1.717,-1.046 -4.229,-2.675 -4.229,-4.992c-0,-2.517 1.796,-3.833 4.187,-3.833c3.713,-0 6.35,3.158 7.267,6.866l1,0l-0.875,-8.504l-0.842,0c-0.958,2.954 -2.871,0 -7.108,0c-3.908,0 -7.058,2.721 -7.058,6.667c-0,7.621 10.891,7.862 12.525,13.45c0.92,3.121 -1.275,5.912 -4.509,5.912c-4.229,0 -7.029,-3.354 -8.262,-7.066l-0.913,-0l1.2,8.579Zm35.088,-27.542l-0.8,0l-8.1,19.246c-1.642,3.867 -2.675,6.783 -5.15,6.983l-0,0.759l7.9,-0l-0,-0.759c-1.359,0 -2.717,-0.358 -2.717,-1.683c0,-1.479 1.638,-4.663 2.158,-6.183l10.463,-0l1.433,3.391c1.521,3.55 1.563,4.313 -1.837,4.475l-0,0.759l10.179,-0l0,-0.759c-2.233,0.117 -3.075,-2.279 -3.792,-3.912l-9.737,-22.317Zm-1.438,5.75l4.625,10.971l-9.216,-0l4.591,-10.971Zm41.154,-1.987c0,-1.167 0.6,-2.442 3.88,-2.442l-0,-0.763l-9.505,0l0,0.763c3.275,-0 3.875,1.275 3.875,2.442l0,16l-15.37,-19.205l-6.821,0l-0,0.763c1.958,0.037 2.312,0.396 3.55,1.796l0.316,0.4l0,20.271c0,1.158 -0.595,2.441 -3.866,2.441l-0,0.759l9.496,-0l-0,-0.759c-3.271,0 -3.871,-1.283 -3.871,-2.441l-0,-18.238l17.721,21.992l0.595,-0l0,-23.779Zm23.242,22.466c-2.912,0 -3.512,-1.283 -3.512,-2.441l-0,-21.55l2.879,-0c2.954,-0 4.783,-0 5.662,5.108l0.959,-0l-0.242,-6.788l-22.592,0l-0.237,6.788l0.954,-0c0.887,-5.108 2.721,-5.108 5.675,-5.108l2.875,-0l-0,21.55c-0,1.158 -0.6,2.441 -3.513,2.441l0,0.759l11.092,-0l0,-0.759Zm18.733,-26.229l-0.804,0l-8.1,19.246c-1.633,3.867 -2.675,6.783 -5.15,6.983l0,0.759l7.904,-0l0,-0.759c-1.358,0 -2.712,-0.358 -2.712,-1.683c-0,-1.479 1.637,-4.663 2.15,-6.183l10.462,-0l1.43,3.391c1.52,3.55 1.558,4.313 -1.825,4.475l-0,0.759l10.166,-0l0,-0.759c-2.225,0.117 -3.062,-2.279 -3.787,-3.912l-9.734,-22.317Zm-1.437,5.75l4.629,10.971l-9.221,-0l4.592,-10.971Zm58.167,-1.987c-0,-1.167 0.612,-2.442 3.516,-2.442l0,-0.763l-7.941,0l-8.817,20.159l-9.225,-20.159l-7.9,0l-0,0.763c3.196,-0 3.792,1.275 3.792,2.442l-0,20.025c-0,1.158 -0.596,2.441 -3.867,2.441l-0,0.759l9.496,-0l-0,-0.759c-3.271,0 -3.875,-1.283 -3.875,-2.441l-0,-18.592l10.025,21.792l0.554,-0l10.221,-22.713l-0,19.513c-0,1.158 -0.6,2.441 -3.513,2.441l0,0.759l11.092,-0l-0,-0.759c-2.908,0 -3.508,-1.283 -3.508,-2.441l-0.05,-20.025Zm20.062,-3.763l-0.808,0l-8.096,19.246c-1.638,3.867 -2.675,6.783 -5.15,6.983l-0,0.759l7.9,-0l-0,-0.759c-1.35,0 -2.708,-0.358 -2.708,-1.683c-0,-1.479 1.629,-4.663 2.145,-6.183l10.463,-0l1.437,3.391c1.513,3.55 1.555,4.313 -1.837,4.475l-0,0.759l10.179,-0l0,-0.759c-2.237,0.117 -3.071,-2.279 -3.792,-3.912l-9.733,-22.317Zm-1.442,5.75l4.625,10.971l-9.216,-0l4.591,-10.971Zm20.605,18.038c-0,1.158 -0.6,2.441 -3.384,2.441l0,0.759l10.963,-0l-0,-0.759c-2.909,0 -3.509,-1.283 -3.509,-2.441l0,-9.017l2.23,-0.079l9.5,12.296l6.429,-0l-0,-0.759c-1.792,-0.121 -2.713,-0.925 -3.792,-2.241l-7.896,-9.738c3.75,-0.512 7.217,-2.471 7.217,-6.704c-0,-4.671 -3.988,-6.988 -10.621,-6.988l-10.521,0l0,0.763c2.784,-0 3.384,1.275 3.384,2.442l-0,20.025Zm4.07,-19.825c0,-1.884 0.367,-1.884 2.955,-1.884c3.591,0 6.383,1.559 6.383,5.509c-0,4.312 -3.55,5.508 -9.338,5.704l0,-9.329Zm28.517,-0.2c0,-1.167 0.592,-2.442 3.909,-2.442l-0,-0.763l-11.892,0l-0,0.763c3.312,-0 3.912,1.275 3.912,2.442l0,20.025c0,1.158 -0.6,2.441 -3.912,2.441l-0,0.759l11.892,-0l-0,-0.759c-3.317,0 -3.909,-1.283 -3.909,-2.441l0,-20.025Zm20.346,-3.763l-0.792,0l-8.1,19.246c-1.641,3.867 -2.679,6.783 -5.154,6.983l0,0.759l7.908,-0l0,-0.759c-1.358,0 -2.716,-0.358 -2.716,-1.683c-0,-1.479 1.629,-4.663 2.15,-6.183l10.462,-0l1.434,3.391c1.52,3.55 1.558,4.313 -1.838,4.475l0,0.759l10.179,-0l0,-0.759c-2.233,0.117 -3.075,-2.279 -3.796,-3.912l-9.737,-22.317Zm-1.433,5.75l4.629,10.971l-9.221,-0l4.592,-10.971Zm-477.342,-30.192c-0,7.305 2.954,10.659 10.217,10.659c1.679,-0 3.833,-0.442 5.112,-1.042c4.508,-2.15 4.913,-5.658 4.913,-10.175l-0,-12.571c-0,-1.158 0.591,-2.433 3.745,-2.433l0,-0.763l-9.262,0l-0,0.763c3.15,-0 3.754,1.275 3.754,2.433l0,12.571c0,3.8 -0.042,9.417 -7.504,9.417c-4.988,-0 -6.9,-2.35 -6.9,-8.575l-0,-13.413c-0,-1.158 0.596,-2.433 3.508,-2.433l0,-0.763l-11.1,0l0,0.763c2.921,-0 3.517,1.275 3.517,2.433l-0,13.129Zm51.308,-13.129c0,-1.158 0.592,-2.433 3.867,-2.433l-0,-0.763l-9.504,0l-0,0.763c3.279,-0 3.879,1.275 3.879,2.433l-0,16.009l-15.367,-19.205l-6.825,0l0,0.763c1.954,0.042 2.313,0.396 3.55,1.792l0.317,0.395l0,20.28c0,1.158 -0.596,2.433 -3.867,2.433l0,0.767l9.504,-0l0,-0.767c-3.279,-0 -3.879,-1.275 -3.879,-2.433l0,-18.234l17.721,21.988l0.604,-0l0,-23.788Zm15.305,0c-0.001,-1.158 0.587,-2.433 3.908,-2.433l-0,-0.763l-11.896,0l0,0.763c3.312,-0 3.912,1.275 3.912,2.433l0,20.034c0,1.158 -0.6,2.433 -3.912,2.433l-0,0.767l11.896,-0l-0,-0.767c-3.321,-0 -3.909,-1.275 -3.909,-2.433l0,-20.034Zm21.667,23.788l0.521,-0c2.196,-5.746 6.308,-16.284 9.258,-23.346c0.638,-1.6 1.442,-2.833 3.317,-2.875l0,-0.763l-8.183,0l-0,0.763c1.158,-0 2.916,0.204 2.916,1.717c0,0.92 -0.604,2.475 -0.962,3.312l-5.671,14.208l-5.825,-13.05c-0.358,-0.8 -1.833,-3.879 -1.833,-4.716c-0,-0.95 0.441,-1.471 2.996,-1.471l-0,-0.763l-10.621,0l-0,0.763c2.32,-0 3.358,2.229 4.433,4.629l9.654,21.592Zm38.175,-0.554l1.8,-6.746l-1.117,-0c-2.116,5.062 -5.145,5.104 -8.341,5.104l-5.275,-0c-0.796,-0 -1.038,-0.838 -1.038,-1.558l0,-9.813l5.629,0c2.675,0 4.95,0.758 4.95,3.875l0.842,0l0,-9.346l-0.842,0c0,3.109 -2.275,3.829 -4.95,3.829l-5.629,0l0,-8.579c0,-0.996 0.763,-1.554 1.754,-1.554l6.43,0c2.8,0 4.112,1.913 4.55,4.067l0.879,-0l-0,-5.709l-21.192,0l0,0.763c2.913,-0 3.508,1.275 3.508,2.433l0,20.034c0,1.158 -0.595,2.433 -3.508,2.433l0,0.767l21.55,-0Zm8.438,-3.2c-0,1.158 -0.6,2.433 -3.392,2.433l-0,0.767l10.975,-0l-0,-0.767c-2.913,-0 -3.513,-1.275 -3.513,-2.433l0,-9.017l2.238,-0.079l9.492,12.296l6.433,-0l0,-0.767c-1.8,-0.121 -2.717,-0.917 -3.792,-2.229l-7.9,-9.742c3.75,-0.517 7.217,-2.479 7.217,-6.704c0,-4.671 -3.988,-6.988 -10.613,-6.988l-10.537,0l0,0.763c2.792,-0 3.392,1.275 3.392,2.433l-0,20.034Zm4.071,-19.83c-0,-1.883 0.358,-1.883 2.954,-1.883c3.595,0 6.387,1.554 6.387,5.513c0,4.312 -3.554,5.508 -9.341,5.712l-0,-9.342Zm23.77,23.584l0.88,-0c0.395,-2.909 3.27,-0 7.42,-0c5.43,-0 8.425,-3.713 8.425,-7.3c0,-4.792 -3.679,-6.509 -9.1,-9.784c-1.716,-1.037 -4.233,-2.67 -4.233,-4.987c0,-2.517 1.792,-3.833 4.188,-3.833c3.716,-0 6.354,3.158 7.262,6.866l1.004,0l-0.879,-8.504l-0.837,0c-0.955,2.954 -2.875,0 -7.109,0c-3.912,0 -7.062,2.713 -7.062,6.667c-0,7.625 10.9,7.871 12.533,13.458c0.913,3.104 -1.275,5.896 -4.508,5.896c-4.234,-0 -7.029,-3.346 -8.263,-7.063l-0.925,0l1.204,8.584Zm30.225,-23.788c0,-1.158 0.596,-2.433 3.909,-2.433l-0,-0.763l-11.892,0l0,0.763c3.313,-0 3.913,1.275 3.913,2.433l-0,20.034c-0,1.158 -0.6,2.433 -3.913,2.433l0,0.767l11.892,-0l-0,-0.767c-3.313,-0 -3.909,-1.275 -3.909,-2.433l0,-20.034Zm18.205,23.234c10.695,-0 16.083,-5.03 16.083,-13.134c-0,-8.979 -6.188,-13.296 -16.4,-13.296l-10.296,0l0,0.763c2.908,-0 3.508,1.275 3.508,2.433l0,20.034c0,1.158 -0.6,2.433 -3.508,2.433l0,0.767l10.613,-0Zm-3.034,-22.909c0,-1.921 0.359,-2.041 2.271,-2.041c7.388,-0 12.496,4.029 12.496,11.854c-0,7.425 -4.708,11.816 -12.854,11.454c-0.879,-0.042 -1.913,-0.479 -1.913,-1.954l0,-19.313Zm35.7,-4.079l-0.8,0l-8.096,19.242c-1.641,3.866 -2.683,6.779 -5.158,6.979l0,0.767l7.904,-0l0,-0.767c-1.354,-0 -2.712,-0.358 -2.712,-1.675c-0,-1.475 1.633,-4.663 2.15,-6.183l10.462,-0l1.434,3.391c1.52,3.55 1.562,4.313 -1.834,4.467l0,0.767l10.184,-0l-0,-0.767c-2.238,0.117 -3.075,-2.271 -3.792,-3.904l-9.742,-22.317Zm-1.433,5.75l4.625,10.975l-9.221,0l4.596,-10.975Zm29.225,21.238c10.7,-0 16.087,-5.03 16.087,-13.134c0,-8.979 -6.183,-13.296 -16.408,-13.296l-10.292,0l0,0.763c2.913,-0 3.513,1.275 3.513,2.433l-0,20.034c-0,1.158 -0.6,2.433 -3.513,2.433l0,0.767l10.613,-0Zm-3.033,-22.909c-0,-1.921 0.362,-2.041 2.275,-2.041c7.387,-0 12.491,4.029 12.491,11.854c0,7.425 -4.704,11.816 -12.85,11.454c-0.879,-0.042 -1.916,-0.479 -1.916,-1.954l-0,-19.313Zm55.879,22.142c-2.913,-0 -3.509,-1.275 -3.509,-2.433l0,-21.55l2.867,-0c2.954,-0 4.792,-0 5.667,5.108l0.958,-0l-0.237,-6.788l-22.592,0l-0.242,6.788l0.959,-0c0.879,-5.108 2.716,-5.108 5.675,-5.108l2.87,-0l0,21.55c0,1.158 -0.604,2.433 -3.516,2.433l-0,0.767l11.1,-0l-0,-0.767Zm30.904,0.767l1.796,-6.746l-1.117,-0c-2.112,5.062 -5.15,5.104 -8.342,5.104l-5.27,-0c-0.796,-0 -1.034,-0.838 -1.034,-1.558l0,-9.813l5.625,0c2.675,0 4.954,0.758 4.954,3.875l0.838,0l-0,-9.346l-0.838,0c0,3.109 -2.279,3.829 -4.954,3.829l-5.625,0l0,-8.579c0,-0.996 0.75,-1.554 1.759,-1.554l6.425,0c2.795,0 4.112,1.913 4.545,4.067l0.88,-0l-0,-5.709l-21.192,0l-0,0.763c2.917,-0 3.508,1.275 3.508,2.433l0,20.034c0,1.158 -0.591,2.433 -3.508,2.433l-0,0.767l21.55,-0Zm29.15,-26.946l-0.838,-0c-1.312,3.233 -3.316,-0.042 -8.783,-0.042c-8.025,0 -13.646,5.875 -13.646,13.813c0,8.737 5.942,13.729 13.729,13.729c3.825,-0 7.942,-2 10.375,-4.992l-0.679,-0.796c-2.754,2.713 -5.425,3.988 -9.341,3.988c-6.542,-0 -9.455,-6.021 -9.455,-11.613c0,-7.183 2.834,-12.491 9.421,-12.491c4.55,-0 7.463,2.995 8.621,7.383l0.954,-0l-0.358,-8.979Zm28.679,3.712c0,-1.158 0.6,-2.433 3.871,-2.433l-0,-0.763l-9.496,0l0,0.763c3.271,-0 3.867,1.275 3.867,2.433l-0,16.009l-15.359,-19.205l-6.833,0l0,0.763c1.958,0.042 2.325,0.396 3.554,1.792l0.325,0.395l0,20.28c0,1.158 -0.604,2.433 -3.879,2.433l0,0.767l9.496,-0l-0,-0.767c-3.267,-0 -3.867,-1.275 -3.867,-2.433l0,-18.234l17.725,21.988l0.596,-0l0,-23.788Zm15.304,0c0,-1.158 0.6,-2.433 3.913,-2.433l-0,-0.763l-11.896,0l-0,0.763c3.312,-0 3.917,1.275 3.917,2.433l-0,20.034c-0,1.158 -0.605,2.433 -3.917,2.433l-0,0.767l11.896,-0l-0,-0.767c-3.313,-0 -3.913,-1.275 -3.913,-2.433l0,-20.034Zm31.371,-3.712l-0.833,-0c-1.321,3.233 -3.317,-0.042 -8.779,-0.042c-8.021,0 -13.655,5.875 -13.655,13.813c0,8.737 5.95,13.729 13.73,13.729c3.833,-0 7.945,-2 10.383,-4.992l-0.683,-0.796c-2.759,2.713 -5.425,3.988 -9.342,3.988c-6.542,-0 -9.463,-6.021 -9.463,-11.613c0,-7.183 2.838,-12.491 9.425,-12.491c4.546,-0 7.463,2.995 8.621,7.383l0.954,-0l-0.358,-8.979Zm18.9,-0.042l-0.792,0l-8.1,19.242c-1.641,3.866 -2.679,6.779 -5.154,6.979l0,0.767l7.909,-0l-0,-0.767c-1.359,-0 -2.717,-0.358 -2.717,-1.675c-0,-1.475 1.629,-4.663 2.15,-6.183l10.462,-0l1.434,3.391c1.521,3.55 1.558,4.313 -1.838,4.467l0,0.767l10.179,-0l0,-0.767c-2.233,0.117 -3.075,-2.271 -3.795,-3.904l-9.738,-22.317Zm-1.433,5.75l4.629,10.975l-9.221,0l4.592,-10.975Z" style="fill:#010202;fill-rule:nonzero;"/><path d="M337.941,30.07l-82.575,-0.005l0.029,63.375c0,0 -0.037,0.238 -0.029,0.48c0.054,2.508 2.309,5.508 3.8,7.179c2.817,3.158 6.834,4.816 10.992,4.825c0.717,-0 1.2,-0.067 1.2,-0.067l13.533,0.029c0,0 1.242,-0.012 2.759,0.142c4.75,0.475 6.375,2.092 9.025,5.854c2.912,-4.592 5.362,-5.925 10.775,-5.996l16.9,-0.029c6.187,-0.879 11.083,-4.454 13.104,-10.487c0.391,-1.167 0.491,-1.959 0.508,-2.155l-0.021,-63.145Z" style="fill:#f9b008;fill-rule:nonzero;"/><path d="M150.262,1.538c3.613,2.116 4.633,4.716 5.208,8.729l-0.025,83.125c0,-0 -0.008,0.187 0.017,0.475c0.288,2.566 2.317,5.337 3.963,7.091c2.875,3.088 7.862,5.017 12.075,4.867l13.845,0.029c0,0 1.096,-0.021 2.484,0.109c4.612,0.437 6.429,2.029 8.941,5.762c3.167,-4.542 5.646,-5.867 11.159,-5.871l16.525,-0.029c5.887,-0.862 10.962,-5.025 13.121,-10.562c0.187,-0.463 0.445,-1.225 0.454,-1.75l0.012,-82.459c0,0 0.079,-1.133 0.342,-2.508c0.729,-3.729 1.908,-5.371 5.033,-6.992l-22.796,-0.008l0,79.621c0,-0 -0.07,0.808 -0.283,1.762c-0.721,3.329 -2.433,4.546 -5.525,5.621l-35.15,0c0,0 -0.908,-0.271 -1.883,-0.7c-3.209,-1.417 -4.167,-3.312 -4.704,-6.654l-0,-79.654l-22.813,-0.004Z" style="fill:#016195;fill-rule:nonzero;"/><path d="M250.034,1.57c3.688,2.188 4.729,4.625 5.321,8.725l0.008,18.254l82.58,0l-0.009,-17.487c0,-0 0.138,-1.134 0.459,-2.5c0.82,-3.454 2.287,-5.404 4.75,-6.975l-93.109,-0.017Z" style="fill:#016195;fill-rule:nonzero;"/><path d="M315.553,96.484l0.146,0.512c0,0 -0.204,0.3 -0.375,0.484c-0.633,0.679 -1.275,0.804 -2.146,0.72c-0.645,-0.104 -1.312,-0.666 -1.825,-1.041l0.213,-0.063c-0.204,-0.1 -0.409,-0.229 -0.6,-0.358c-0.817,0.521 -2.55,-0.083 -3.234,-0.35l0.376,-0.467c-0.588,-0.129 -1.151,-0.333 -1.492,-0.471c-0,0 0.433,-0.675 0.579,-0.87c0.367,-0.488 0.754,-0.871 1.333,-1.092l0.204,-0.4c0.459,-1.479 0.717,-3.154 -0.275,-4.458c-0.408,-0.53 -0.612,-0.921 -0.733,-1.425c-2.058,0.337 -2.604,0.675 -4.712,1.716c-0.555,0.279 -1.213,0.388 -1.817,0.196l-0.179,-0.071c-0.2,-0.091 -0.379,-0.271 -0.359,-0.504c-1.616,-0.025 -3.204,0.046 -4.808,0.179c0.075,0.488 0.204,1.325 0.292,1.942c0.116,0.883 0.083,1.8 0.404,2.646l0.196,0.487c0.25,0.579 0.354,0.892 0.096,1.5l0.054,0.275c0.162,0.954 -1.038,1.188 -1.738,1.184c-0.587,-0.013 -1.187,-0.384 -1.654,-0.696l0.138,-0.325c-0.171,-0.029 -0.325,-0.088 -0.45,-0.146c-0.271,-0.129 -0.755,-0.446 -0.755,-0.446c0,0 0.092,-0.471 0.163,-0.658c0.129,-0.367 0.308,-0.759 0.562,-1.054l0.009,-1.913l-0.213,-0.296l-0.196,-0.262c-0.358,0.933 -0.675,2.058 -0.504,2.766l0.1,0.35c0.184,0.675 -0.029,1.096 -0.521,1.521l0.225,1.05c0,0 -0.316,0.309 -0.529,0.475c-1.016,0.804 -1.929,0.659 -3.108,0.309c-0,-0 -0.033,-0.334 -0.012,-0.417c0.012,-0.079 0.037,-0.154 0.07,-0.233c-0.4,-0.05 -0.808,-0.171 -1.271,-0.305c0,0 0.134,-0.637 0.238,-0.904c0.238,-0.604 0.583,-1.066 1.017,-1.537l0.17,-0.179c0.046,-0.388 0.084,-0.771 0.205,-1.134c0.512,-1.462 -0.53,-1.316 -0.375,-3.204c-0.88,-0.621 -2.417,-1.279 -2.859,-2.229c-0.175,-0.367 -0.362,-0.479 -0.583,-0.796l-0.125,-0.175c-0.5,-0.371 -0.583,-0.233 -0.692,-0.942l-0.062,-0.358c-0.084,-0.458 -0.35,-0.979 -0.733,-1.467c-1.692,-1.308 -2.563,0.134 -4.021,-0.533c-0.071,-0.033 -0.146,-0.075 -0.204,-0.125c-0.463,-0.325 -0.884,-0.462 -1.242,-0.317l-0.229,0.105c-0.975,0.395 -2.329,0.512 -2.892,-0.625c-0.462,-0.196 -0.846,-0.471 -1.096,-0.955c-0.308,-0.625 -0.262,-1.366 0.242,-1.85l0.196,-0.179c0.621,-0.587 0.329,-1.733 1.466,-2.779c0.846,-0.767 0.409,-1.267 1.204,-2.071c-0.87,-0.441 -1.562,-1.066 -2.212,-1.821l0.642,-0.77c-0,-0 0.412,0.237 0.945,0.462c0.446,0.192 1.242,0.508 1.75,0.333l0.292,-0.112c0.488,-0.179 0.992,-0.225 1.454,0.025l0.184,0.112l0.25,0.18c0.487,0.27 0.862,-0.492 2.058,0.041c0.096,0.042 0.196,0.104 0.304,0.104c0.413,0.005 1.917,-0.304 3.163,-0.308c1.45,0 2.245,0.342 3.695,0.408c1.317,0.063 2.076,-0.066 3.401,-0.054c2.562,0.038 3.995,0.421 6.562,0.413c3.725,-0.017 5.783,-1.042 9.504,-0.963c2.563,0.05 6.6,-0.283 7.8,2.288c0.742,0.529 1.142,1.171 1.183,2.587c0.05,1.313 -0.162,3.371 -1.175,4.413c-1.333,1.791 -2.612,4.133 -1.429,6.25c0.871,1.537 0.638,2.479 0.463,4.241c-0,0 -0.025,1.642 0.146,2.675c0.016,0.1 0.05,0.196 0.083,0.3l0.117,0.346c0.191,0.55 0.154,0.879 -0.459,1.113m-3.216,-3.334c-0.2,0.592 -0.355,1.175 -0.371,1.667l0.316,-0.133c-0.041,-0.217 0.009,-0.85 0.055,-1.534" style="fill:#12140f;fill-rule:nonzero;"/><path d="M304.844,79.866c0.287,-0.083 0.587,-0.075 0.879,-0.067l-0.213,-0.15c0,0 -0.366,-0.271 -0.625,-0.416c-0.237,-0.142 -0.462,-0.296 -0.733,-0.375l-0.179,-0.034l0.042,0.525c0.033,0.325 0.108,0.771 0.558,0.617l0.271,-0.1Zm1.712,0.458c1.371,0.95 3.309,1.871 4.992,1.55c0.333,-0.071 0.775,-0.283 1.25,-0.583c-1.329,0.758 -2.908,0.7 -5.054,-0.325c-0.442,-0.204 -0.85,-0.438 -1.188,-0.642m6.979,0.438c0.98,-0.771 1.93,-1.779 2.209,-2.509c0.054,-0.129 0.062,-0.208 0.062,-0.208c0.384,-1.533 0.213,-3.4 -0.996,-3.992c-1.862,-0.916 -3.991,-0.72 -6.008,-0.762c-3.712,-0.075 -5.767,0.95 -9.475,0.962c-2.567,0.017 -4.012,-0.375 -6.583,-0.408c-1.342,-0.008 -2.092,0.108 -3.438,0.05c-1.429,-0.058 -2.216,-0.4 -3.646,-0.4c-1.237,0 -2.754,0.3 -3.162,0.3c-0.629,0 -0.804,-0.462 -1.433,-0.208c-0.442,0.183 -0.871,0.241 -1.313,-0l-0.192,-0.109l-0.254,-0.187c-0.275,-0.163 -0.512,-0.088 -0.691,-0.021l-0.325,0.121c-0.13,0.042 -0.271,0.087 -0.438,0.104l1.075,0.488c-1.204,0.783 -1.4,0.662 -1.808,1.937c-0.313,0.975 -1.163,1.154 -1.442,2.196c-0.162,0.612 -0.333,1.237 -0.804,1.687l-0.204,0.184c-0.513,0.496 0.366,1.187 0.941,1.062c0.255,-0.058 0.546,-0.116 0.792,-0.212l0.213,-0.092c0.641,-0.275 1.391,-0.104 1.945,0.292l0.225,0.146c1.213,0.558 2.184,-1.138 4.655,0.941c0.766,0.642 1.525,1.696 1.708,2.704l0.067,0.388c0.27,0.242 0.433,0.379 0.545,0.542c0.871,0.758 0.459,1.166 1.488,1.766c0.775,0.45 2.337,1.288 2.337,1.288c-0.383,2.571 0.421,1.591 0.463,3.108c0.008,0.35 -0.063,0.613 -0.138,0.829l-0.1,0.284c-0.137,0.408 -0.154,0.854 -0.191,1.287c-0.434,0.429 -0.871,0.871 -1.138,1.425c0.763,0.121 1.017,0.075 1.592,-0.4l-0.317,-1.075c0.359,-0.237 0.888,-0.471 0.759,-0.975l-0.109,-0.375c-0.408,-1.7 1.059,-4.55 1.792,-6.004c0.512,1.621 0.896,2.85 1.967,4.221l0.166,2.396l-0.487,-0.23l0.412,0.584l-0.387,0.158c-0.042,0.175 -0.15,0.396 -0.246,0.617c0.358,0.179 1.096,0.296 1.425,-0l-0.154,-0.496c-0,-0 0.141,-0.238 0.158,-0.283c0.025,-0.059 0.058,-0.146 0.067,-0.23c-0.063,-0.254 -0.113,-0.383 -0.171,-0.529l-0.213,-0.512c-0.35,-0.921 -0.325,-1.884 -0.462,-2.85c-0.117,-0.904 -0.438,-2.859 -0.438,-2.859c0,0 2.459,-0.225 3.688,-0.266c1.179,-0.042 4.612,0.033 4.612,0.033l-0.816,0.562c0.833,-0.229 2.125,-1.124 3.25,-1.487c1.241,-0.404 2.604,-0.558 3.896,-0.692c0.083,1.13 0.083,2.017 0.804,2.959c1.416,1.854 0.875,4.208 0.154,6.233c0.125,-0.008 0.5,-0.05 0.629,-0.062c0.204,-1.701 0.733,-3.076 1.238,-4.542c0.062,-0.154 -0.275,-2.629 -0.292,-2.767l0.975,-0.271c-0,0 0.3,0.7 0.633,1.646c0.913,2.596 0.921,3.654 0.688,6.234l0.275,0.295l0.446,-0.075l0.175,-0.058l-0.117,-0.35c-0.342,-1.025 -0.288,-2.229 -0.275,-3.304c0.162,-1.571 0.412,-2.425 -0.342,-3.759c-1.041,-1.841 -0.571,-3.804 0.367,-5.533c-0.75,0.546 -1.517,0.967 -2.1,1.075c-2.108,0.413 -4.567,-0.791 -6.196,-2.058l-0.233,-0c-0.059,0.004 -0.109,0.012 -0.179,0.037l-0.246,0.084c-1.059,0.358 -1.667,-0.442 -1.767,-1.392c-0.042,-0.483 0.05,-0.488 -0.271,-0.708l-1.071,-0.717c0,0 1.484,-0.142 1.75,-0.142c1.084,0 1.7,0.413 2.546,1.029c0.088,0.059 3.584,2.596 5.646,1.855c1.533,-0.55 2.271,-1.75 3.021,-3.046l0.137,-0.234c0.009,0.017 0.084,0.113 0.025,0.23l0.867,-0.296c0.021,0.05 0.046,0.246 -0.075,0.491l-0.158,0.267c-0.634,1.108 -1.275,1.971 -1.984,2.588m-4.141,13.566c-0,0 -0.384,0.071 -0.504,0.117c-0.267,0.1 -0.475,0.275 -0.659,0.479c1.213,0.292 1.417,0.375 1.163,-0.596m4.183,0.863c-0.367,0.171 -0.992,0.475 -1.212,0.612c-0.188,0.121 -0.342,0.25 -0.455,0.355c0.138,0.037 0.3,0.129 0.413,0.145c0.604,0.054 0.992,-0.012 1.425,-0.5l-0.171,-0.612Z" style="fill:#d11224;fill-rule:nonzero;"/><path d="M297.906,6.013l1.642,2.392l4.817,-0.887l-0.267,1.416l1.146,-0.221l-0.846,4.405l3.2,2.2l-0.363,0.241l1.175,0.8l-4.07,2.796l0.904,4.858l-4.859,-0.904l-2.791,4.071l-0.8,-1.158l-0.234,0.341l-2.183,-3.179l-4.458,0.838l0.266,-1.163l-1.429,0.267l0.888,-4.8l-2.404,-1.642l-1.725,-1.366l4.158,-2.85l-0.917,-4.95l4.946,0.92l2.858,-4.158l1.238,1.808l0.108,-0.075Z" style="fill:#12140f;fill-rule:nonzero;"/><path d="M296.604,14.151c-0.704,-0 -1.266,0.567 -1.266,1.267c-0,0.7 0.562,1.266 1.266,1.266c0.7,0 1.267,-0.566 1.267,-1.266c-0,-0.7 -0.567,-1.267 -1.267,-1.267m1.554,-0.05l4.267,-1.767l0.663,-3.546l-3.542,0.659l-1.738,4.337c0.134,0.092 0.25,0.196 0.35,0.317m0.467,1.475l4.192,1.783l2.975,-2.041l-2.975,-2.038l-4.217,1.75c0.017,0.121 0.033,0.25 0.033,0.388l-0.008,0.158Zm-0.758,1.437l1.679,4.175l3.542,0.663l-0.663,-3.55l-4.133,-1.75c-0.117,0.171 -0.263,0.325 -0.425,0.462m-1.584,0.409l-1.762,4.158l2.029,2.979l2.05,-2.983l-1.671,-4.154c-0.1,0.016 -0.216,0.025 -0.325,0.025c-0.108,-0 -0.217,-0.009 -0.321,-0.025m-1.358,-0.863l-4.242,1.742l-0.658,3.55l3.546,-0.663l1.775,-4.175c-0.163,-0.129 -0.304,-0.283 -0.421,-0.454m-0.325,-1.491l-4.308,-1.788l-2.971,2.038l2.971,2.041l4.287,-1.754l-0.008,-0.187c-0,-0.121 0.012,-0.242 0.029,-0.35m0.788,-1.275l-1.817,-4.346l-3.546,-0.659l0.658,3.546l4.346,1.8c0.1,-0.129 0.221,-0.241 0.359,-0.341m-0.867,-4.738l1.812,4.346c0.088,-0.013 0.18,-0.017 0.271,-0.017c0.088,0 0.171,0.004 0.259,0.013l1.737,-4.342l-2.05,-2.967l-2.029,2.967Z" style="fill:#fff;fill-rule:nonzero;"/><path d="M150.262,1.538c3.613,2.116 4.638,4.72 5.2,8.733l-0.017,83.121c0,-0 -0.008,0.187 0.017,0.475c0.283,2.571 2.317,5.337 3.963,7.091c2.875,3.088 7.862,5.017 12.07,4.871l13.85,0.025c0,0 1.092,-0.021 2.484,0.109c4.612,0.437 6.429,2.029 8.941,5.766c3.167,-4.541 5.646,-5.871 11.163,-5.875l16.521,-0.025c5.887,-0.866 10.962,-5.029 13.121,-10.566c0.187,-0.463 0.445,-1.225 0.454,-1.755l0.012,-82.454c0,0 0.079,-1.133 0.342,-2.516c0.729,-3.721 1.908,-5.363 5.033,-6.984l-22.796,-0.008l0,79.625c0,-0 -0.07,0.804 -0.283,1.758c-0.721,3.329 -2.433,4.542 -5.525,5.621l-35.15,0c0,0 -0.908,-0.267 -1.883,-0.7c-3.209,-1.417 -4.167,-3.312 -4.704,-6.654l-0,-79.654l-22.813,-0.004Zm99.771,0.033c3.687,2.187 4.729,4.625 5.325,8.725l0.008,18.25l82.575,-0l-0.008,-17.483c-0,-0 0.137,-1.134 0.458,-2.505c0.825,-3.454 2.292,-5.4 4.742,-6.97l-93.1,-0.017Zm87.908,28.5l-82.575,-0.008l0.025,63.379c0,-0 -0.037,0.233 -0.025,0.479c0.054,2.504 2.309,5.508 3.8,7.179c2.817,3.154 6.829,4.817 10.988,4.825c0.721,0 1.2,-0.067 1.2,-0.067l13.533,0.034c0,-0 1.242,-0.021 2.763,0.133c4.75,0.479 6.37,2.096 9.025,5.854c2.912,-4.587 5.366,-5.921 10.779,-5.987l16.896,-0.034c6.191,-0.883 11.087,-4.45 13.108,-10.487c0.392,-1.171 0.492,-1.963 0.508,-2.15l-0.025,-63.15Zm3.192,65.3c-0.004,0.054 -0.238,3.871 -3.8,8.242c-2.438,2.995 -7.083,5.062 -10.892,5.537l-16.966,0.033c-0.025,0 -3.875,0.063 -5.892,1.171c-1.946,1.071 -3.75,3.871 -4.829,5.863c-0.429,-0.688 -0.95,-1.471 -1.529,-2.242l-0.471,0.854c-1.196,-1.916 -2.154,-3.408 -3.184,-4.525c-2.016,-1.146 -6.616,-1.121 -6.662,-1.121l-13.467,-0.033c-4.446,0.533 -9.337,-1.362 -12.521,-4.517c-1.079,-0.725 -2.058,-1.575 -2.895,-2.508c-4.45,-4.987 -4.263,-8.162 -4.167,-8.804l-0.025,-64.779l-0.008,-18.134c-0.567,-3.595 -1.563,-5.587 -3.817,-7.133l-0.696,0.096c-0.392,0.121 -4.837,1.562 -6.433,3.792c-1.425,1.979 -1.713,6.116 -1.717,6.145l-0.012,82.405c-0,0.1 -0.009,3.037 -4.242,8.008c-2.404,2.829 -6.708,4.987 -10.4,5.462l-16.608,0.03c-0.021,-0 -3.863,0.016 -5.921,1.058c-2.046,1.033 -4.034,3.833 -5.246,5.833c-0.408,-0.7 -0.913,-1.496 -1.475,-2.279l-0.504,0.825c-1.017,-1.737 -1.879,-3.125 -2.809,-4.208l-0.3,-0.171c-2.17,-1.138 -6.275,-1.058 -6.304,-1.058l-13.854,-0.03c0,0 -1.946,0.08 -4.533,-0.545c-2.563,-0.605 -5.792,-1.909 -8.367,-4.659c-0.842,-0.591 -1.608,-1.246 -2.279,-1.975c-4.367,-4.671 -4.417,-8.091 -4.392,-8.65l0.021,-82.979c-0.8,-5.112 -2.35,-7.004 -7.262,-8.887l0.275,-1.488l73.67,0l26.609,0.017l98.958,0.033l0.071,0.317l2.629,2.716c-1.937,0.888 -4.65,2.405 -5.854,4.088c-1.375,1.925 -1.883,5.783 -1.921,6.1l0,18.175l0.021,63.925Z" style="fill:#12140f;fill-rule:nonzero;"/><path d="M174.603,81.07c0.667,3.705 1.7,4.805 5.292,5.942l16.804,0l-0,-43.825l-22.096,0l-0,37.883Z" style="fill:#f9b008;fill-rule:nonzero;"/><path d="M194.028,60.75c0.284,0.554 0.188,1.104 -0.204,1.57l0.204,2.1l-1.283,0.192l-1.083,0.029l-1.23,-0.008l-0.925,-0.05l-1.274,-0.15l0.141,-0.704l-1.287,-0.163l0.366,-2.125c-0.308,-0.35 -0.416,-0.725 -0.325,-1.196l0.05,-0.204c-0.354,-0.554 -0.629,-1.079 -0.629,-1.646c0,-0.375 0.125,-0.616 0.213,-0.762c-0.325,-2.2 -0.846,-6.538 -0.846,-6.538l1.229,0.263l0.887,-0.621l0.684,0.329l0.721,-0.425l0.762,0.375l0.788,-0.408l0.779,0.45l0.741,-0.3l0.896,0.608l1.288,-0.275l-0.229,1.371l1.083,-0.242l-1.054,6.213l0.083,0.192c0.233,0.683 0.033,1.254 -0.342,1.841l-0.204,0.284Z" style="fill:#12140f;fill-rule:nonzero;"/><path d="M188.145,60.282c-0.059,0.216 -0.1,0.329 0.05,0.491l3.966,0c0.134,-0.17 0.179,-0.291 0.125,-0.512l-4.125,-0.025l-0.016,0.046Zm3.791,1.491l-3.529,0l-0.158,0.938l0.325,0.037l0.875,0.038l1.208,0.012l1.004,-0.029l0.388,-0.058l-0.113,-0.938Zm-3.937,-2.537l4.337,-0l0.154,-0.221c0.375,-0.579 0.409,-0.837 0.084,-1.412l0.891,-5.23l-0.27,0.059l-0.8,-0.546l-0.7,0.283l-0.738,-0.429l-0.746,0.4l-0.733,-0.367l-0.725,0.421l-0.625,-0.308l-0.763,0.537l-0.295,-0.054c0.154,1.163 0.458,3.521 0.725,5.054c0.087,0.53 -0.255,0.646 -0.255,0.971c0,0.334 0.213,0.629 0.459,0.842" style="fill:#007d4d;fill-rule:nonzero;"/><path d="M188.926,77.726c0.283,0.558 0.183,1.112 -0.204,1.583l0.195,2.096l-1.27,0.188l-1.088,0.025l-1.233,-0.005l-0.925,-0.041l-1.279,-0.159l0.15,-0.7l-1.288,-0.162l0.367,-2.125c-0.308,-0.346 -0.417,-0.725 -0.325,-1.188l0.042,-0.22c-0.342,-0.546 -0.63,-1.067 -0.63,-1.642c0,-0.375 0.13,-0.613 0.221,-0.763c-0.321,-2.2 -0.846,-6.537 -0.846,-6.537l1.234,0.267l0.879,-0.625l0.687,0.333l0.713,-0.425l0.767,0.375l0.787,-0.408l0.783,0.454l0.746,-0.313l0.892,0.609l1.292,-0.271l-0.234,1.371l1.079,-0.238l-1.05,6.208l0.08,0.196c0.237,0.684 0.037,1.246 -0.342,1.838l-0.2,0.279Z" style="fill:#12140f;fill-rule:nonzero;"/><path d="M183.042,77.262c-0.058,0.221 -0.104,0.325 0.05,0.491l3.963,0c0.137,-0.166 0.187,-0.295 0.129,-0.512l-4.129,-0.025l-0.013,0.046Zm3.792,1.491l-3.534,0l-0.162,0.938l0.329,0.037l0.875,0.042l1.208,0.008l1.009,-0.025l0.387,-0.062l-0.112,-0.938Zm-3.942,-2.533l4.333,0l0.159,-0.225c0.379,-0.571 0.412,-0.833 0.083,-1.408l0.888,-5.234l-0.263,0.063l-0.8,-0.55l-0.7,0.292l-0.733,-0.434l-0.746,0.392l-0.742,-0.354l-0.712,0.421l-0.642,-0.313l-0.754,0.542l-0.292,-0.067c0.146,1.163 0.454,3.525 0.713,5.063c0.091,0.52 -0.246,0.65 -0.246,0.975c-0,0.329 0.217,0.625 0.454,0.837" style="fill:#007d4d;fill-rule:nonzero;"/><path d="M315.553,65.079l0.146,0.521c0,0 -0.204,0.3 -0.375,0.479c-0.633,0.684 -1.275,0.8 -2.146,0.725c-0.645,-0.108 -1.312,-0.671 -1.825,-1.041l0.213,-0.067c-0.204,-0.104 -0.409,-0.229 -0.6,-0.363c-0.817,0.525 -2.55,-0.083 -3.234,-0.35l0.376,-0.466c-0.588,-0.125 -1.151,-0.334 -1.492,-0.467c-0,0 0.433,-0.675 0.579,-0.867c0.367,-0.491 0.754,-0.875 1.333,-1.091l0.204,-0.404c0.459,-1.475 0.717,-3.155 -0.275,-4.455c-0.408,-0.529 -0.612,-0.925 -0.733,-1.425c-2.058,0.334 -2.604,0.671 -4.712,1.717c-0.555,0.279 -1.213,0.383 -1.817,0.188l-0.179,-0.063c-0.2,-0.092 -0.379,-0.279 -0.359,-0.512c-1.616,-0.017 -3.204,0.05 -4.808,0.187c0.075,0.488 0.204,1.325 0.292,1.942c0.116,0.875 0.083,1.791 0.404,2.646l0.196,0.483c0.25,0.575 0.354,0.892 0.096,1.504l0.054,0.267c0.162,0.958 -1.038,1.196 -1.738,1.183c-0.587,-0.004 -1.187,-0.379 -1.654,-0.688l0.138,-0.324c-0.171,-0.034 -0.325,-0.092 -0.45,-0.155c-0.271,-0.129 -0.755,-0.45 -0.755,-0.45c0,0 0.092,-0.454 0.163,-0.65c0.129,-0.366 0.308,-0.758 0.562,-1.054l0.009,-1.912l-0.213,-0.288l-0.196,-0.271c-0.358,0.93 -0.675,2.059 -0.504,2.775l0.1,0.346c0.184,0.667 -0.029,1.092 -0.521,1.513l0.225,1.058c0,0 -0.316,0.308 -0.529,0.471c-1.016,0.808 -1.929,0.658 -3.108,0.308c-0,0 -0.033,-0.333 -0.012,-0.412c0.012,-0.084 0.037,-0.159 0.07,-0.238c-0.4,-0.05 -0.808,-0.171 -1.271,-0.308c0,-0 0.134,-0.633 0.238,-0.896c0.238,-0.608 0.583,-1.075 1.017,-1.546l0.17,-0.179c0.046,-0.375 0.084,-0.762 0.205,-1.129c0.512,-1.458 -0.53,-1.321 -0.375,-3.2c-0.88,-0.625 -2.417,-1.283 -2.859,-2.225c-0.175,-0.371 -0.362,-0.488 -0.583,-0.8l-0.125,-0.179c-0.5,-0.371 -0.583,-0.234 -0.692,-0.942l-0.062,-0.362c-0.084,-0.455 -0.35,-0.98 -0.733,-1.463c-1.692,-1.304 -2.563,0.133 -4.021,-0.533c-0.071,-0.042 -0.146,-0.079 -0.204,-0.121c-0.463,-0.333 -0.884,-0.467 -1.242,-0.317l-0.229,0.096c-0.975,0.408 -2.329,0.517 -2.892,-0.625c-0.462,-0.187 -0.846,-0.467 -1.096,-0.954c-0.308,-0.625 -0.262,-1.363 0.242,-1.846l0.196,-0.179c0.621,-0.592 0.329,-1.733 1.466,-2.775c0.846,-0.771 0.409,-1.271 1.204,-2.067c-0.87,-0.45 -1.562,-1.075 -2.212,-1.833l0.642,-0.771c-0,0 0.412,0.242 0.945,0.467c0.446,0.183 1.242,0.508 1.75,0.333l0.292,-0.108c0.488,-0.179 0.992,-0.229 1.454,0.016l0.184,0.113l0.25,0.187c0.487,0.267 0.862,-0.495 2.058,0.042c0.096,0.038 0.196,0.096 0.304,0.096c0.413,0.008 1.917,-0.3 3.163,-0.3c1.45,-0 2.245,0.342 3.695,0.408c1.317,0.059 2.076,-0.066 3.401,-0.05c2.562,0.025 3.995,0.421 6.562,0.409c3.725,-0.017 5.783,-1.042 9.504,-0.967c2.563,0.046 6.6,-0.279 7.8,2.292c0.742,0.529 1.142,1.162 1.183,2.587c0.05,1.313 -0.162,3.367 -1.175,4.408c-1.333,1.792 -2.612,4.138 -1.429,6.255c0.871,1.529 0.638,2.474 0.463,4.237c-0,0 -0.025,1.646 0.146,2.671c0.016,0.104 0.05,0.204 0.083,0.308l0.117,0.342c0.191,0.554 0.154,0.879 -0.459,1.108m-3.216,-3.329c-0.2,0.592 -0.355,1.171 -0.371,1.667l0.316,-0.138c-0.041,-0.216 0.009,-0.854 0.055,-1.529" style="fill:#12140f;fill-rule:nonzero;"/><path d="M304.844,48.47c0.291,-0.084 0.587,-0.084 0.883,-0.075l-0.217,-0.155c0,0 -0.366,-0.262 -0.625,-0.408c-0.237,-0.142 -0.466,-0.3 -0.733,-0.371l-0.183,-0.037l0.041,0.525c0.038,0.329 0.113,0.771 0.559,0.616l0.275,-0.095Zm1.712,0.454c1.375,0.954 3.313,1.875 4.992,1.546c0.333,-0.063 0.779,-0.28 1.25,-0.575c-1.329,0.754 -2.908,0.695 -5.058,-0.325c-0.438,-0.209 -0.846,-0.442 -1.184,-0.646m6.975,0.441c0.988,-0.775 1.934,-1.787 2.217,-2.516c0.05,-0.121 0.062,-0.2 0.062,-0.2c0.38,-1.534 0.209,-3.4 -0.995,-3.992c-1.867,-0.921 -3.996,-0.721 -6.013,-0.762c-3.712,-0.084 -5.767,0.941 -9.475,0.958c-2.571,0.017 -4.012,-0.371 -6.583,-0.404c-1.346,-0.017 -2.096,0.108 -3.438,0.046c-1.429,-0.063 -2.212,-0.4 -3.646,-0.4c-1.241,-0 -2.75,0.304 -3.154,0.304c-0.637,-0.004 -0.816,-0.467 -1.437,-0.213c-0.45,0.188 -0.875,0.242 -1.321,0l-0.188,-0.112l-0.258,-0.184c-0.271,-0.158 -0.504,-0.087 -0.692,-0.02l-0.325,0.12c-0.116,0.046 -0.262,0.084 -0.429,0.105l1.067,0.487c-1.196,0.783 -1.392,0.667 -1.796,1.938c-0.321,0.979 -1.175,1.158 -1.45,2.2c-0.162,0.604 -0.337,1.237 -0.804,1.683l-0.2,0.187c-0.517,0.488 0.362,1.18 0.937,1.059c0.25,-0.059 0.546,-0.109 0.788,-0.213l0.217,-0.096c0.641,-0.279 1.391,-0.1 1.941,0.3l0.234,0.146c1.208,0.554 2.179,-1.137 4.65,0.938c0.762,0.641 1.525,1.7 1.708,2.7l0.062,0.391c0.275,0.238 0.438,0.388 0.55,0.542c0.875,0.754 0.463,1.167 1.488,1.767c0.779,0.45 2.337,1.279 2.337,1.279c-0.383,2.583 0.421,1.604 0.463,3.117c0.012,0.35 -0.063,0.612 -0.142,0.829l-0.091,0.279c-0.142,0.412 -0.159,0.862 -0.196,1.292c-0.434,0.425 -0.875,0.87 -1.138,1.42c0.759,0.125 1.021,0.08 1.592,-0.391l-0.317,-1.075c0.359,-0.238 0.892,-0.479 0.759,-0.979l-0.109,-0.375c-0.408,-1.696 1.063,-4.55 1.788,-6.005c0.512,1.63 0.9,2.855 1.971,4.221l0.166,2.396l-0.491,-0.229l0.412,0.587l-0.383,0.155c-0.046,0.179 -0.154,0.391 -0.246,0.616c0.358,0.179 1.096,0.3 1.429,0l-0.162,-0.491c-0,-0 0.145,-0.242 0.162,-0.288c0.029,-0.062 0.058,-0.142 0.067,-0.225c-0.067,-0.258 -0.113,-0.387 -0.171,-0.529l-0.213,-0.517c-0.35,-0.916 -0.329,-1.887 -0.458,-2.846c-0.117,-0.912 -0.437,-2.866 -0.437,-2.866c-0,-0 2.454,-0.221 3.687,-0.259c1.171,-0.041 4.608,0.034 4.608,0.034l-0.816,0.558c0.833,-0.225 2.121,-1.121 3.25,-1.487c1.241,-0.4 2.604,-0.555 3.9,-0.688c0.087,1.129 0.079,2.013 0.8,2.954c1.416,1.859 0.871,4.209 0.158,6.238c0.125,-0.017 0.504,-0.059 0.621,-0.075c0.208,-1.692 0.737,-3.067 1.246,-4.529c0.058,-0.163 -0.284,-2.638 -0.296,-2.767l0.971,-0.279c-0,-0 0.308,0.708 0.637,1.646c0.909,2.6 0.925,3.654 0.684,6.237l0.287,0.3l0.438,-0.079l0.175,-0.058l-0.121,-0.35c-0.338,-1.025 -0.284,-2.225 -0.275,-3.3c0.171,-1.575 0.412,-2.43 -0.342,-3.763c-1.033,-1.837 -0.567,-3.808 0.375,-5.542c-0.754,0.555 -1.525,0.971 -2.108,1.084c-2.104,0.412 -4.563,-0.788 -6.196,-2.059l-0.233,0.005c-0.046,-0 -0.105,0.012 -0.18,0.033l-0.241,0.083c-1.059,0.367 -1.671,-0.433 -1.771,-1.391c-0.038,-0.48 0.054,-0.488 -0.263,-0.705l-1.075,-0.72c0,-0 1.488,-0.146 1.75,-0.146c1.088,-0 1.696,0.421 2.546,1.025c0.088,0.066 3.588,2.604 5.642,1.871c1.546,-0.555 2.275,-1.755 3.025,-3.059l0.137,-0.233c0.009,0.025 0.084,0.117 0.025,0.233l0.867,-0.296c0.017,0.05 0.046,0.25 -0.075,0.492l-0.154,0.271c-0.638,1.096 -1.283,1.967 -1.992,2.587m0.046,14.425c-0.362,0.171 -0.987,0.475 -1.204,0.613c-0.2,0.112 -0.35,0.242 -0.467,0.358c0.142,0.038 0.304,0.113 0.421,0.138c0.604,0.058 0.992,-0.009 1.429,-0.496l-0.179,-0.613Zm-4.183,-0.862c-0,-0 -0.384,0.075 -0.504,0.121c-0.267,0.1 -0.475,0.262 -0.663,0.475c1.217,0.291 1.425,0.379 1.167,-0.596" style="fill:#d11224;fill-rule:nonzero;"/><path d="M214.988,92.488l0.621,0.046l0.7,2.883l0.571,0.629c-0,0 0.075,0.071 0.187,0.209c0.138,0.187 0.263,0.366 0.363,0.537l0.362,0.4c0,0 0.063,0.075 0.171,0.208c1.1,1.396 0.742,2.388 -0.504,3.421c-0.254,2.109 -1.225,2.675 -3.3,2.425c-0.546,0.538 -1.359,1.188 -2.154,1.188c-0.792,-0 -1.596,-0.65 -2.138,-1.171c-1.287,0.283 -2.379,0.292 -2.962,-0.888c-0.888,-0.245 -1.371,-1.025 -1.534,-2.425l-0.308,-0.195c-1.408,-1.017 -0.996,-2.625 0.067,-3.755l1.37,-1.504l0.767,-3.158l2.079,-0.104c1.163,-0.925 1.917,-0.992 3.171,-0.034l2.188,0.146l0.283,1.142Z" style="fill:#12140f;fill-rule:nonzero;"/><path d="M211.891,92.012c-0.141,-0.108 -0.266,-0.2 -0.387,-0.271c-0.334,-0.196 -0.571,-0.25 -0.846,-0.158l-0.946,0.662c-0.267,0.23 -0.275,0.588 -0.475,0.763c-0.1,0.092 -0.917,-0.163 -0.762,-0.708l-0.392,0.02l-0.65,2.667l-1.546,1.708c-0.679,0.721 -1.137,1.596 -0.171,2.259l1.438,-2.134l0.837,0.567l-1.608,2.4c0.179,1.592 0.583,1.871 2.154,1.521l0.583,-3.613l1.009,0.159l-0.596,3.741c0.317,0.3 0.979,0.888 1.471,0.888c0.487,-0 1.141,-0.567 1.458,-0.863l-0.787,-3.825l0.995,-0.204l0.775,3.725c1.496,0.125 1.921,-0.121 2.117,-1.608l-1.742,-2.317l0.809,-0.612l1.541,2.041c0.742,-0.712 0.73,-1.279 -0.037,-2.075l-1.588,-1.754l-0.654,-2.675l-0.454,-0.033l-0.896,0.512c-0.121,-0.287 -0.204,-0.445 -0.446,-0.633l-0.204,-0.15Z" style="fill:#fff;fill-rule:nonzero;"/><path d="M183.823,60.75c0.284,0.554 0.184,1.104 -0.208,1.57l0.204,2.1l-1.283,0.192l-1.079,0.029l-1.238,-0.008l-0.917,-0.05l-1.283,-0.15l0.15,-0.704l-1.292,-0.163l0.367,-2.125c-0.304,-0.35 -0.412,-0.725 -0.325,-1.196l0.05,-0.204c-0.35,-0.554 -0.633,-1.079 -0.633,-1.646c-0,-0.375 0.129,-0.616 0.216,-0.762c-0.325,-2.2 -0.845,-6.538 -0.845,-6.538l1.233,0.263l0.887,-0.621l0.684,0.329l0.712,-0.425l0.767,0.375l0.783,-0.408l0.784,0.45l0.745,-0.3l0.896,0.608l1.288,-0.275l-0.238,1.371l1.088,-0.242l-1.05,6.213l0.075,0.192c0.237,0.683 0.042,1.254 -0.342,1.841l-0.196,0.284Z" style="fill:#12140f;fill-rule:nonzero;"/><path d="M177.935,60.282c-0.054,0.216 -0.1,0.329 0.055,0.491l3.958,0c0.142,-0.17 0.183,-0.291 0.129,-0.512l-4.129,-0.025l-0.013,0.046Zm3.792,1.491l-3.529,0l-0.163,0.938l0.33,0.037l0.875,0.038l1.208,0.012l1.004,-0.029l0.392,-0.058l-0.117,-0.938Zm-3.933,-2.537l4.333,-0l0.154,-0.221c0.371,-0.579 0.404,-0.837 0.084,-1.412l0.887,-5.23l-0.262,0.059l-0.8,-0.546l-0.7,0.283l-0.742,-0.429l-0.742,0.4l-0.741,-0.367l-0.717,0.421l-0.633,-0.308l-0.763,0.537l-0.287,-0.054c0.145,1.163 0.458,3.521 0.716,5.054c0.092,0.53 -0.254,0.646 -0.254,0.971c0,0.334 0.221,0.629 0.467,0.842" style="fill:#007d4d;fill-rule:nonzero;"/><path d="M186.672,92.488l0.616,0.046l0.7,2.883l0.58,0.629c-0,0 0.07,0.071 0.179,0.209c0.145,0.187 0.266,0.366 0.362,0.537l0.363,0.4c-0,0 0.071,0.075 0.175,0.208c1.104,1.396 0.745,2.388 -0.509,3.421c-0.246,2.109 -1.225,2.675 -3.291,2.425c-0.555,0.538 -1.363,1.188 -2.155,1.188c-0.795,-0 -1.595,-0.65 -2.141,-1.171c-1.284,0.283 -2.384,0.292 -2.967,-0.888c-0.887,-0.245 -1.371,-1.025 -1.525,-2.425l-0.308,-0.195c-1.417,-1.017 -0.996,-2.625 0.062,-3.755l1.371,-1.504l0.763,-3.158l2.079,-0.104c1.166,-0.925 1.925,-0.992 3.171,-0.034l2.2,0.146l0.275,1.142Z" style="fill:#12140f;fill-rule:nonzero;"/><path d="M183.575,92.012c-0.142,-0.108 -0.271,-0.2 -0.387,-0.271c-0.334,-0.196 -0.576,-0.25 -0.842,-0.158l-0.946,0.662c-0.275,0.23 -0.279,0.588 -0.479,0.763c-0.104,0.092 -0.913,-0.163 -0.758,-0.708l-0.396,0.02l-0.655,2.667l-1.545,1.708c-0.675,0.721 -1.134,1.596 -0.171,2.259l1.441,-2.134l0.842,0.567l-1.617,2.4c0.188,1.592 0.596,1.871 2.163,1.521l0.583,-3.613l1.009,0.159l-0.596,3.741c0.308,0.3 0.971,0.888 1.466,0.888c0.488,-0 1.146,-0.567 1.463,-0.863l-0.792,-3.825l1,-0.204l0.767,3.725c1.504,0.125 1.925,-0.121 2.117,-1.608l-1.742,-2.317l0.817,-0.612l1.533,2.041c0.742,-0.712 0.738,-1.279 -0.029,-2.075l-1.596,-1.754l-0.654,-2.675l-0.454,-0.033l-0.892,0.512c-0.117,-0.287 -0.208,-0.445 -0.446,-0.633l-0.204,-0.15Z" style="fill:#fff;fill-rule:nonzero;"/><path d="M233.494,77.473l0.621,0.034l0.7,2.887l0.57,0.634c0,-0 0.084,0.075 0.188,0.212c0.146,0.183 0.267,0.363 0.362,0.538l0.359,0.4c-0,-0 0.066,0.075 0.175,0.204c1.1,1.4 0.741,2.383 -0.496,3.425c-0.254,2.108 -1.229,2.671 -3.304,2.425c-0.55,0.537 -1.359,1.187 -2.154,1.187c-0.792,-0.004 -1.592,-0.641 -2.138,-1.171c-1.283,0.284 -2.379,0.292 -2.967,-0.895c-0.879,-0.238 -1.37,-1.017 -1.533,-2.417l-0.304,-0.2c-1.408,-1.013 -0.996,-2.613 0.067,-3.746l1.37,-1.508l0.763,-3.154l2.079,-0.109c1.167,-0.925 1.917,-0.991 3.171,-0.029l2.2,0.142l0.271,1.141Z" style="fill:#12140f;fill-rule:nonzero;"/><path d="M230.401,77.001c-0.141,-0.104 -0.266,-0.204 -0.387,-0.275c-0.334,-0.204 -0.567,-0.254 -0.838,-0.15l-0.954,0.654c-0.267,0.225 -0.275,0.588 -0.479,0.763c-0.096,0.092 -0.917,-0.167 -0.754,-0.708l-0.396,0.02l-0.65,2.667l-1.55,1.704c-0.675,0.729 -1.142,1.6 -0.171,2.263l1.438,-2.142l0.845,0.579l-1.616,2.396c0.183,1.592 0.591,1.879 2.162,1.529l0.584,-3.621l1.004,0.159l-0.596,3.75c0.312,0.291 0.983,0.871 1.467,0.871c0.487,-0 1.15,-0.555 1.462,-0.855l-0.796,-3.825l1.009,-0.204l0.77,3.725c1.5,0.125 1.921,-0.116 2.117,-1.6l-1.742,-2.325l0.809,-0.612l1.546,2.041c0.733,-0.708 0.725,-1.279 -0.042,-2.083l-1.592,-1.742l-0.654,-2.675l-0.454,-0.029l-0.896,0.504c-0.117,-0.287 -0.204,-0.445 -0.437,-0.633l-0.209,-0.146Z" style="fill:#fff;fill-rule:nonzero;"/><path d="M324.481,6.013l1.646,2.392l4.808,-0.887l-0.267,1.416l1.146,-0.221l-0.846,4.405l3.2,2.2l-0.358,0.241l1.171,0.8l-4.071,2.796l0.904,4.858l-4.858,-0.904l-2.792,4.071l-0.808,-1.158l-0.225,0.341l-2.179,-3.179l-4.459,0.838l0.263,-1.163l-1.429,0.267l0.896,-4.8l-2.413,-1.642l-1.725,-1.366l4.158,-2.85l-0.916,-4.95l4.95,0.92l2.854,-4.158l1.237,1.808l0.113,-0.075Z" style="fill:#12140f;fill-rule:nonzero;"/><path d="M323.171,14.151c-0.7,-0 -1.263,0.567 -1.263,1.267c0,0.7 0.563,1.266 1.263,1.266c0.7,0 1.271,-0.566 1.271,-1.266c-0,-0.7 -0.571,-1.267 -1.271,-1.267m1.554,-0.05l4.275,-1.767l0.658,-3.546l-3.541,0.659l-1.734,4.337c0.13,0.092 0.242,0.196 0.342,0.317m0.475,1.475l4.188,1.783l2.979,-2.041l-2.979,-2.038l-4.217,1.75c0.021,0.121 0.033,0.25 0.033,0.388l-0.004,0.158Zm-0.762,1.437l1.679,4.175l3.541,0.663l-0.658,-3.55l-4.137,-1.75c-0.113,0.171 -0.259,0.325 -0.425,0.462m-1.584,0.409l-1.758,4.158l2.033,2.979l2.042,-2.983l-1.667,-4.154c-0.108,0.016 -0.221,0.025 -0.333,0.025c-0.104,-0 -0.204,-0.009 -0.317,-0.025m-1.358,-0.863l-4.242,1.742l-0.65,3.55l3.542,-0.663l1.771,-4.175c-0.163,-0.129 -0.3,-0.283 -0.421,-0.454m-0.321,-1.491l-4.312,-1.788l-2.975,2.038l2.975,2.041l4.291,-1.754l-0.008,-0.187c-0,-0.121 0.008,-0.242 0.029,-0.35m0.783,-1.275l-1.812,-4.346l-3.542,-0.659l0.65,3.546l4.346,1.8c0.096,-0.129 0.225,-0.241 0.358,-0.341m-0.87,-4.738l1.816,4.346c0.088,-0.013 0.179,-0.017 0.267,-0.017c0.087,0 0.179,0.004 0.258,0.013l1.742,-4.342l-2.042,-2.967l-2.041,2.967Z" style="fill:#fff;fill-rule:nonzero;"/><path d="M233.494,55.151l0.621,0.037l0.7,2.884l0.57,0.633c0,0 0.084,0.075 0.188,0.213c0.146,0.187 0.267,0.366 0.362,0.537l0.359,0.4c-0,0 0.066,0.067 0.175,0.208c1.1,1.392 0.741,2.38 -0.496,3.421c-0.254,2.113 -1.229,2.671 -3.304,2.425c-0.55,0.538 -1.359,1.179 -2.154,1.179c-0.792,0 -1.592,-0.637 -2.138,-1.166c-1.283,0.287 -2.379,0.296 -2.967,-0.892c-0.879,-0.242 -1.37,-1.025 -1.533,-2.417l-0.304,-0.204c-1.408,-1.016 -0.996,-2.612 0.067,-3.746l1.37,-1.508l0.763,-3.154l2.079,-0.104c1.167,-0.925 1.917,-0.992 3.171,-0.034l2.2,0.146l0.271,1.142Z" style="fill:#12140f;fill-rule:nonzero;"/><path d="M230.401,54.675c-0.141,-0.109 -0.266,-0.2 -0.387,-0.271c-0.334,-0.204 -0.567,-0.25 -0.838,-0.154l-0.954,0.65c-0.267,0.233 -0.275,0.591 -0.479,0.77c-0.096,0.092 -0.917,-0.166 -0.754,-0.708l-0.396,0.017l-0.65,2.671l-1.55,1.704c-0.675,0.729 -1.142,1.6 -0.171,2.258l1.438,-2.133l0.845,0.571l-1.616,2.4c0.183,1.587 0.591,1.875 2.162,1.525l0.584,-3.621l1.004,0.162l-0.596,3.75c0.312,0.292 0.983,0.871 1.467,0.879c0.487,0 1.15,-0.566 1.462,-0.862l-0.796,-3.825l1.009,-0.204l0.77,3.729c1.5,0.121 1.921,-0.125 2.117,-1.613l-1.742,-2.316l0.809,-0.613l1.546,2.042c0.733,-0.717 0.725,-1.279 -0.042,-2.075l-1.592,-1.758l-0.654,-2.671l-0.454,-0.029l-0.896,0.512c-0.117,-0.296 -0.204,-0.45 -0.437,-0.637l-0.209,-0.15Z" style="fill:#fff;fill-rule:nonzero;"/><path d="M233.494,32.828l0.621,0.034l0.7,2.887l0.57,0.629c0,0 0.084,0.08 0.188,0.217c0.146,0.188 0.267,0.358 0.362,0.529l0.359,0.409c-0,-0 0.066,0.07 0.175,0.204c1.1,1.396 0.741,2.387 -0.496,3.425c-0.254,2.108 -1.229,2.671 -3.304,2.433c-0.55,0.529 -1.359,1.179 -2.154,1.171c-0.792,-0 -1.592,-0.633 -2.138,-1.167c-1.283,0.288 -2.379,0.296 -2.967,-0.891c-0.879,-0.246 -1.37,-1.021 -1.533,-2.413l-0.304,-0.208c-1.408,-1.013 -0.996,-2.621 0.067,-3.746l1.37,-1.513l0.763,-3.15l2.079,-0.104c1.167,-0.933 1.917,-0.991 3.171,-0.033l2.2,0.142l0.271,1.145Z" style="fill:#12140f;fill-rule:nonzero;"/><path d="M230.401,32.356c-0.141,-0.112 -0.266,-0.204 -0.387,-0.275c-0.334,-0.204 -0.567,-0.254 -0.838,-0.158l-0.954,0.658c-0.267,0.229 -0.275,0.588 -0.479,0.767c-0.096,0.087 -0.917,-0.171 -0.754,-0.713l-0.396,0.021l-0.65,2.671l-1.55,1.708c-0.675,0.717 -1.142,1.596 -0.171,2.255l1.438,-2.134l0.845,0.571l-1.616,2.4c0.183,1.588 0.591,1.871 2.162,1.521l0.584,-3.613l1.004,0.159l-0.596,3.746c0.312,0.295 0.983,0.875 1.467,0.875c0.487,-0 1.15,-0.563 1.462,-0.859l-0.796,-3.821l1.009,-0.204l0.77,3.721c1.5,0.129 1.921,-0.117 2.117,-1.6l-1.742,-2.325l0.809,-0.608l1.546,2.041c0.733,-0.716 0.725,-1.279 -0.042,-2.083l-1.592,-1.746l-0.654,-2.675l-0.454,-0.029l-0.896,0.508c-0.117,-0.291 -0.204,-0.445 -0.437,-0.633l-0.209,-0.146Z" style="fill:#fff;fill-rule:nonzero;"/><path d="M233.494,10.502l0.621,0.041l0.7,2.884l0.57,0.633c0,0 0.084,0.075 0.188,0.213c0.146,0.187 0.267,0.358 0.362,0.529l0.359,0.404c-0,-0 0.066,0.071 0.175,0.204c1.1,1.404 0.741,2.388 -0.496,3.429c-0.254,2.104 -1.229,2.671 -3.304,2.429c-0.55,0.538 -1.359,1.175 -2.154,1.175c-0.792,0 -1.592,-0.637 -2.138,-1.166c-1.283,0.279 -2.379,0.296 -2.967,-0.892c-0.879,-0.246 -1.37,-1.025 -1.533,-2.417l-0.304,-0.204c-1.408,-1.012 -0.996,-2.612 0.067,-3.75l1.37,-1.508l0.763,-3.154l2.079,-0.109c1.167,-0.92 1.917,-0.983 3.171,-0.025l2.2,0.146l0.271,1.138Z" style="fill:#12140f;fill-rule:nonzero;"/><path d="M230.401,10.025c-0.141,-0.104 -0.266,-0.195 -0.387,-0.27c-0.334,-0.205 -0.567,-0.25 -0.838,-0.155l-0.954,0.659c-0.267,0.229 -0.275,0.587 -0.479,0.766c-0.096,0.088 -0.917,-0.162 -0.754,-0.708l-0.396,0.017l-0.65,2.671l-1.55,1.7c-0.675,0.729 -1.142,1.604 -0.171,2.262l1.438,-2.133l0.845,0.571l-1.616,2.4c0.183,1.587 0.591,1.866 2.162,1.52l0.584,-3.62l1.004,0.162l-0.596,3.75c0.312,0.296 0.983,0.875 1.467,0.875c0.487,0 1.15,-0.562 1.462,-0.858l-0.796,-3.821l1.009,-0.208l0.77,3.72c1.5,0.13 1.921,-0.112 2.117,-1.6l-1.742,-2.32l0.809,-0.613l1.546,2.042c0.733,-0.709 0.725,-1.284 -0.042,-2.079l-1.592,-1.746l-0.654,-2.675l-0.454,-0.029l-0.896,0.508c-0.117,-0.292 -0.204,-0.446 -0.437,-0.633l-0.209,-0.155Z" style="fill:#fff;fill-rule:nonzero;"/><path d="M271.34,6.013l1.641,2.392l4.817,-0.887l-0.271,1.416l1.15,-0.221l-0.85,4.405l3.204,2.2l-0.366,0.241l1.175,0.8l-4.071,2.796l0.9,4.858l-4.85,-0.904l-2.796,4.071l-0.804,-1.158l-0.229,0.341l-2.175,-3.179l-4.467,0.838l0.267,-1.163l-1.434,0.267l0.892,-4.8l-2.408,-1.642l-1.721,-1.366l4.154,-2.85l-0.917,-4.95l4.95,0.92l2.859,-4.158l1.237,1.808l0.113,-0.075Z" style="fill:#12140f;fill-rule:nonzero;"/><path d="M270.029,14.151c-0.696,-0 -1.262,0.567 -1.262,1.267c-0,0.7 0.566,1.266 1.262,1.266c0.704,0 1.271,-0.566 1.271,-1.266c0,-0.7 -0.567,-1.267 -1.271,-1.267m1.554,-0.05l4.263,-1.767l0.671,-3.546l-3.538,0.659l-1.741,4.337c0.129,0.092 0.241,0.196 0.345,0.317m0.475,1.475l4.192,1.783l2.971,-2.041l-2.975,-2.038l-4.221,1.75c0.021,0.121 0.038,0.25 0.038,0.388l-0.005,0.158Zm-0.766,1.437l1.687,4.175l3.538,0.663l-0.671,-3.55l-4.121,-1.75c-0.121,0.171 -0.263,0.325 -0.433,0.462m-1.575,0.409l-1.771,4.158l2.042,2.979l2.041,-2.983l-1.675,-4.154c-0.104,0.016 -0.212,0.025 -0.325,0.025c-0.104,-0 -0.212,-0.009 -0.312,-0.025m-1.363,-0.863l-4.241,1.742l-0.663,3.55l3.55,-0.663l1.775,-4.175c-0.158,-0.129 -0.308,-0.283 -0.421,-0.454m-0.325,-1.491l-4.308,-1.788l-2.979,2.038l2.983,2.041l4.279,-1.754l0,-0.187c0,-0.121 0.008,-0.242 0.025,-0.35m0.784,-1.275l-1.821,-4.346l-3.542,-0.659l0.663,3.546l4.341,1.8c0.1,-0.129 0.221,-0.241 0.358,-0.341m-0.866,-4.738l1.817,4.346c0.083,-0.013 0.179,-0.017 0.266,-0.017c0.088,0 0.175,0.004 0.258,0.013l1.742,-4.342l-2.041,-2.967l-2.042,2.967Z" style="fill:#fff;fill-rule:nonzero;"/><path d="M168.157,77.473l0.625,0.034l0.701,2.887l0.57,0.634c0,-0 0.079,0.075 0.188,0.212c0.146,0.183 0.262,0.363 0.358,0.538l0.359,0.4c-0,-0 0.075,0.075 0.179,0.204c1.1,1.4 0.745,2.383 -0.513,3.425c-0.237,2.108 -1.221,2.671 -3.287,2.425c-0.554,0.537 -1.359,1.187 -2.159,1.187c-0.787,-0.004 -1.591,-0.641 -2.137,-1.171c-1.279,0.284 -2.379,0.292 -2.963,-0.895c-0.887,-0.238 -1.37,-1.017 -1.533,-2.417l-0.3,-0.2c-1.417,-1.013 -1,-2.613 0.058,-3.746l1.375,-1.508l0.763,-3.154l2.075,-0.109c1.167,-0.925 1.921,-0.991 3.171,-0.029l2.196,0.142l0.274,1.141Z" style="fill:#12140f;fill-rule:nonzero;"/><path d="M165.065,77.001c-0.146,-0.104 -0.267,-0.204 -0.387,-0.275c-0.334,-0.204 -0.571,-0.254 -0.846,-0.15l-0.942,0.654c-0.275,0.225 -0.279,0.588 -0.479,0.763c-0.104,0.092 -0.917,-0.167 -0.763,-0.708l-0.391,0.02l-0.65,2.667l-1.546,1.704c-0.675,0.729 -1.138,1.6 -0.175,2.263l1.437,-2.142l0.85,0.579l-1.616,2.396c0.179,1.592 0.591,1.879 2.154,1.529l0.587,-3.621l1.005,0.159l-0.592,3.75c0.312,0.291 0.971,0.871 1.467,0.871c0.487,-0 1.145,-0.555 1.458,-0.855l-0.788,-3.825l1,-0.204l0.78,3.725c1.487,0.125 1.912,-0.116 2.108,-1.6l-1.742,-2.325l0.813,-0.612l1.533,2.041c0.746,-0.708 0.733,-1.279 -0.029,-2.083l-1.592,-1.742l-0.65,-2.675l-0.458,-0.029l-0.9,0.504c-0.117,-0.287 -0.204,-0.445 -0.442,-0.633l-0.204,-0.146Z" style="fill:#fff;fill-rule:nonzero;"/><path d="M168.157,55.151l0.625,0.037l0.701,2.884l0.57,0.633c0,0 0.079,0.075 0.188,0.213c0.146,0.187 0.262,0.366 0.358,0.537l0.359,0.4c-0,0 0.075,0.067 0.179,0.208c1.1,1.392 0.745,2.38 -0.513,3.421c-0.237,2.113 -1.221,2.671 -3.287,2.425c-0.554,0.538 -1.359,1.179 -2.159,1.179c-0.787,0 -1.591,-0.637 -2.137,-1.166c-1.279,0.287 -2.379,0.296 -2.963,-0.892c-0.887,-0.242 -1.37,-1.025 -1.533,-2.417l-0.3,-0.204c-1.417,-1.016 -1,-2.612 0.058,-3.746l1.375,-1.508l0.763,-3.154l2.075,-0.104c1.167,-0.925 1.921,-0.992 3.171,-0.034l2.196,0.146l0.274,1.142Z" style="fill:#12140f;fill-rule:nonzero;"/><path d="M165.065,54.675c-0.146,-0.109 -0.267,-0.2 -0.387,-0.271c-0.334,-0.204 -0.571,-0.25 -0.846,-0.154l-0.942,0.65c-0.275,0.233 -0.279,0.591 -0.479,0.77c-0.104,0.092 -0.917,-0.166 -0.763,-0.708l-0.391,0.017l-0.65,2.671l-1.546,1.704c-0.675,0.729 -1.138,1.6 -0.175,2.258l1.437,-2.133l0.85,0.571l-1.616,2.4c0.179,1.587 0.591,1.875 2.154,1.525l0.587,-3.621l1.005,0.162l-0.592,3.75c0.312,0.292 0.971,0.871 1.467,0.879c0.487,0 1.145,-0.566 1.458,-0.862l-0.788,-3.825l1,-0.204l0.78,3.729c1.487,0.121 1.912,-0.125 2.108,-1.613l-1.742,-2.316l0.813,-0.613l1.533,2.042c0.746,-0.717 0.733,-1.279 -0.029,-2.075l-1.592,-1.758l-0.65,-2.671l-0.458,-0.029l-0.9,0.512c-0.117,-0.296 -0.204,-0.45 -0.442,-0.637l-0.204,-0.15Z" style="fill:#fff;fill-rule:nonzero;"/><path d="M168.157,32.828l0.625,0.034l0.701,2.887l0.57,0.629c0,0 0.079,0.08 0.188,0.217c0.146,0.188 0.262,0.358 0.358,0.529l0.359,0.409c-0,-0 0.075,0.07 0.179,0.204c1.1,1.396 0.745,2.387 -0.513,3.425c-0.237,2.108 -1.221,2.671 -3.287,2.433c-0.554,0.529 -1.359,1.179 -2.159,1.171c-0.787,-0 -1.591,-0.633 -2.137,-1.167c-1.279,0.288 -2.379,0.296 -2.963,-0.891c-0.887,-0.246 -1.37,-1.021 -1.533,-2.413l-0.3,-0.208c-1.417,-1.013 -1,-2.621 0.058,-3.746l1.375,-1.513l0.763,-3.15l2.075,-0.104c1.167,-0.933 1.921,-0.991 3.171,-0.033l2.196,0.142l0.274,1.145Z" style="fill:#12140f;fill-rule:nonzero;"/><path d="M165.065,32.356c-0.146,-0.112 -0.267,-0.204 -0.387,-0.275c-0.334,-0.204 -0.571,-0.254 -0.846,-0.158l-0.942,0.658c-0.275,0.229 -0.279,0.588 -0.479,0.767c-0.104,0.087 -0.917,-0.171 -0.763,-0.713l-0.391,0.021l-0.65,2.671l-1.546,1.708c-0.675,0.717 -1.138,1.596 -0.175,2.255l1.437,-2.134l0.85,0.571l-1.616,2.4c0.179,1.588 0.591,1.871 2.154,1.521l0.587,-3.613l1.005,0.159l-0.592,3.746c0.312,0.295 0.971,0.875 1.467,0.875c0.487,-0 1.145,-0.563 1.458,-0.859l-0.788,-3.821l1,-0.204l0.78,3.721c1.487,0.129 1.912,-0.117 2.108,-1.6l-1.742,-2.325l0.813,-0.608l1.533,2.041c0.746,-0.716 0.733,-1.279 -0.029,-2.083l-1.592,-1.746l-0.65,-2.675l-0.458,-0.029l-0.9,0.508c-0.117,-0.291 -0.204,-0.445 -0.442,-0.633l-0.204,-0.146Z" style="fill:#fff;fill-rule:nonzero;"/><path d="M168.157,10.502l0.625,0.041l0.701,2.884l0.57,0.633c0,0 0.079,0.075 0.188,0.213c0.146,0.187 0.262,0.358 0.358,0.529l0.359,0.404c-0,-0 0.075,0.071 0.179,0.204c1.1,1.404 0.745,2.388 -0.513,3.429c-0.237,2.104 -1.221,2.671 -3.287,2.429c-0.554,0.538 -1.359,1.175 -2.159,1.175c-0.787,0 -1.591,-0.637 -2.137,-1.166c-1.279,0.279 -2.379,0.296 -2.963,-0.892c-0.887,-0.246 -1.37,-1.025 -1.533,-2.417l-0.3,-0.204c-1.417,-1.012 -1,-2.612 0.058,-3.75l1.375,-1.508l0.763,-3.154l2.075,-0.109c1.167,-0.92 1.921,-0.983 3.171,-0.025l2.196,0.146l0.274,1.138Z" style="fill:#12140f;fill-rule:nonzero;"/><path d="M165.065,10.025c-0.146,-0.104 -0.267,-0.195 -0.387,-0.27c-0.334,-0.205 -0.571,-0.25 -0.846,-0.155l-0.942,0.659c-0.275,0.229 -0.279,0.587 -0.479,0.766c-0.104,0.088 -0.917,-0.162 -0.763,-0.708l-0.391,0.017l-0.65,2.671l-1.546,1.7c-0.675,0.729 -1.138,1.604 -0.175,2.262l1.437,-2.133l0.85,0.571l-1.616,2.4c0.179,1.587 0.591,1.866 2.154,1.52l0.587,-3.62l1.005,0.162l-0.592,3.75c0.312,0.296 0.971,0.875 1.467,0.875c0.487,0 1.145,-0.562 1.458,-0.858l-0.788,-3.821l1,-0.208l0.78,3.72c1.487,0.13 1.912,-0.112 2.108,-1.6l-1.742,-2.32l0.813,-0.613l1.533,2.042c0.746,-0.709 0.733,-1.284 -0.029,-2.079l-1.592,-1.746l-0.65,-2.675l-0.458,-0.029l-0.9,0.508c-0.117,-0.292 -0.204,-0.446 -0.442,-0.633l-0.204,-0.155Z" style="fill:#fff;fill-rule:nonzero;"/><path d="M219.085,1.538l-7.77,-0l-14.455,14.495l-14.5,-14.495l-7.758,-0l0,7.745l12.296,12.38l-12.296,12.245l0,7.75l7.704,0l14.554,-14.47l14.509,14.47l7.716,0l0,-7.687l-12.366,-12.313l12.366,-12.333l0,-7.787Z" style="fill:#d11224;fill-rule:nonzero;"/><path d="M198.228,87.015l16.325,0c3.304,-1.25 4.179,-2.362 4.533,-5.912l-0,-37.913l-20.858,0l-0,43.825Z" style="fill:#f9b008;fill-rule:nonzero;"/><path d="M203.33,63.558c-0.358,-0.13 -0.671,-0.342 -0.888,-0.717c-0.041,-0.071 -0.066,-0.138 -0.091,-0.204c-1.3,-0.488 -1.675,-1.779 -0.888,-3.271c-2.054,-1.429 -2.258,-2.858 -0.316,-4.563c-1.579,-1.491 -0.692,-4.57 1.5,-4.908c-0.238,-2.508 1.458,-3.287 3.629,-2.883c1.308,-1.8 4.221,-1.934 5.417,-0.071c1.466,-0.725 2.795,-0.263 3.125,1.017c0.075,0.037 0.162,0.079 0.237,0.129c0.563,0.358 0.717,0.896 0.733,1.466c0.538,0.334 0.896,0.771 1.075,1.275c0.434,0.317 0.78,0.696 0.934,1.263c0.287,1.042 -0.15,2.05 -0.746,2.871c0.829,0.846 1.487,1.866 1.296,2.966c-0.175,1.005 -0.646,2.171 -1.754,2.409c0.929,1.641 0.545,3.5 -1.55,3.758c-0.263,0.038 -0.509,0.046 -0.7,0.046c0.079,2.362 -1.125,2.979 -3.259,2.121c-0.096,2.387 -0.062,4.875 0.196,7.258c0.108,1.013 0.404,1.946 0.971,2.779c0.6,0.638 1.308,1.25 1.867,1.671l2.737,2.042l-0.171,0.337l1.092,0.817l-0.329,0.675c-0,-0 -1.984,-0.575 -3.196,-1.088c-0.667,-0.291 -1.383,-0.604 -1.963,-1.05l-0.179,-0.145c0.042,0.129 0.096,0.245 0.15,0.366l0.779,2.321l-0.637,0.388c-0,-0 -0.475,-0.48 -0.983,-1.034c-0.113,0.067 -1.105,-0.971 -1.717,-1.654c-0.146,-0.154 -0.254,-0.329 -0.358,-0.508c-0.692,0.712 -1.784,2.091 -2.084,2.604c-0.341,0.567 -2.433,2.471 -3.058,3.05l-0.596,-0.463l0.833,-1.566l-1.15,1.066l-0.795,-0.616l1.016,-1.904c0,-0.001 0.571,-0.955 0.771,-1.305c-1.05,0.45 -2.008,0.784 -3.296,1.18l-0.316,-0.692l1.683,-1.038c-0.746,0.284 -1.521,0.555 -2.325,0.796l-0.421,-0.921l2.171,-1.35c-0,0 0.787,-0.433 1.708,-1.104c3.55,-2.6 2.946,-3.825 3.354,-7.621c0.088,-0.85 0.138,-1.912 0.171,-2.825c-1,0.209 -2.05,0.159 -2.391,-0.891c-0.88,-0.204 -1.38,-0.946 -1.288,-2.279" style="fill:#12140f;fill-rule:nonzero;"/><path d="M205.011,81.07c0.692,-0.708 2.542,-3.662 3.367,-3.825c1.116,-0.225 1.57,1.45 2.166,2.109l-0.062,-0.204c-0,-0 -0.054,-0.163 -0.075,-0.359c-0.125,-1.075 0.687,-1.358 1.495,-0.787c0.505,0.354 1.138,0.625 1.701,0.871c-0.1,-0.084 -0.688,-0.525 -1.38,-1.167c-3.041,-2.825 -2.683,-4.238 -3,-7.975c-0.17,-1.992 0.042,-5.938 0.042,-5.938c2.554,1.363 3.5,1.555 3.067,-1.695c0.608,0.066 2.296,0.27 2.637,-0.421c0.75,-1.504 -0.841,-2.825 -1.658,-3.721c-0,-0 1.758,0.462 1.846,0.467c1.416,0.087 1.937,-2.621 0.046,-4.013l-0.463,-0.342c0.654,-0.7 1.5,-1.712 1.196,-2.791c-0.284,-1.046 -1.521,-1.221 -2.367,-1.334c0.154,-0.483 0.608,-1.77 0.008,-2.154c-0.841,-0.541 -1.816,0.288 -2.416,0.742c-0,-0 -0.213,-0.813 -0.242,-0.879c-0.646,-1.496 -3.217,-1.225 -3.942,0.175l-0.195,0.354c-0.625,-0.163 -2.125,-0.517 -2.638,-0.004c-0.812,0.821 -0.454,1.887 -0.192,2.775c-0.987,-0.1 -2.112,-0.246 -2.454,1.154c-0.421,1.775 0.288,2.025 1.575,2.546c-2.587,1.783 -3.333,2.604 -0.145,4.396c-1.859,2.416 -0.555,2.954 1.87,2.675c-0.216,0.666 -0.783,2.362 -0.245,2.954c0.633,0.708 2.87,-0.5 3.504,-0.834c-0,0 -0,3.888 -0.2,5.825c-0.417,3.834 0.116,5.33 -3.4,8.046c0.483,-0.229 1.771,-0.991 2.308,-0.454c0.717,0.717 -1.096,2.521 -1.521,3.396l-0.233,0.412Z" style="fill:#007d4d;fill-rule:nonzero;"/><path d="M209.869,1.538l-26.066,-0l13.054,13.05l13.012,-13.05Zm9.217,10.462l-10.304,10.275l10.304,10.25l-0,-20.525Zm-44.484,20.463l10.851,-10.8l-10.851,-10.93l0,21.73Zm22.871,-3.221l-12.583,12.416l25.042,0l-12.459,-12.416Z" style="fill:#fff;fill-rule:nonzero;"/><path d="M253.648,131.986l-12.271,0.004l-0,6.204c-0,0 -0.017,0.259 -0.105,0.571c-0.287,1.071 -1.124,1.779 -2.229,1.863l-79.666,0.012l-0.004,6.067c0.037,1.275 -1.101,2.404 -2.371,2.391l-10.105,0l0.021,-1.416l-2.441,-0l-0,-19.229l9.075,-0l-0,-5.684c0.02,-0.846 0.35,-1.512 0.8,-2.033c0.479,-0.442 1.104,-0.763 1.75,-0.813l0.175,-0.008l79.333,0l0,-5.821c-0.017,-1.254 0.925,-2.4 2.137,-2.691c0.192,-0.05 0.359,-0.071 0.471,-0.075l0.188,0.004l16.721,-0c1.296,0.075 2.341,1.054 2.583,2.291c1.008,0.313 1.688,1.246 1.7,2.309l0,4l77.858,-0c0.65,0.05 1.267,0.375 1.75,0.804c0.359,0.425 0.642,0.937 0.75,1.492c0.3,0.095 0.675,0.283 1.013,0.583c0.387,0.45 0.671,1.033 0.692,1.629l-0.005,4.021l7.417,-0l0,2.196l1.663,-0l-0,18.45l-10.1,-0c-0,-0 -0.246,-0 -0.588,-0.084c-0.787,-0.212 -1.325,-0.7 -1.608,-1.341c-0.125,-0.009 -0.313,-0.034 -0.521,-0.092c-1.175,-0.308 -2.171,-1.471 -2.075,-2.708l-0.008,-4.246l-77.225,-0c-1.005,-0.042 -1.738,-0.646 -2.096,-1.429c-1.554,-0.096 -2.675,-1.429 -2.679,-2.821l-0,-4.4Z" style="fill:#12140f;fill-rule:nonzero;"/><path d="M237.502,130.57l0.687,0l0,1.75l-0.687,-1.75Zm18.366,0l-0.691,0l-0,1.75l0.691,-1.75Zm-0.691,5.746c-0,0.067 0.008,0.217 0.058,0.408c0.104,0.434 0.579,0.938 1.05,0.967l81.992,-0.004l0.004,-15.017c-0.004,-0.308 -0.171,-0.617 -0.363,-0.854c-0.229,-0.196 -0.5,-0.333 -0.808,-0.358l-79.354,-0l-0,9.112l-2.579,5.746Zm-17.071,-23.425c-0.542,0.129 -0.954,0.633 -0.963,1.196l0,14.954l19.075,-0l0,-14.9c0,-0 -0.008,-0.138 -0.054,-0.325c-0.158,-0.583 -0.587,-0.917 -1.183,-0.95l-16.7,-0c-0.042,-0 -0.104,0.008 -0.175,0.025m-81.929,32.15l-2.371,-5.833l-0.246,-0l-0,-9.221l-7.55,-0l0,16.154l8.954,-0c0,-0 0.121,-0 0.283,-0.038c0.505,-0.141 0.88,-0.55 0.93,-1.062m-0.721,-5.833l0.729,1.787l-0,-1.787l-0.729,-0Zm182.45,0.008l-0.729,-0l0.004,1.783l0.725,-1.783Zm1.908,-9.213l0,9.213l-2.621,5.825c0.167,0.708 0.642,1.092 1.209,1.117l8.954,-0l-0,-16.155l-7.542,0Zm-101.642,6.484l-2.562,-5.917l-0,-9.117l-79.358,-0.004c-0.305,0.025 -0.58,0.163 -0.809,0.354c-0.187,0.242 -0.346,0.55 -0.358,0.867l0.004,15l81.85,0c0.692,-0.092 1.133,-0.496 1.233,-1.183" style="fill:#fff;fill-rule:nonzero;"/><path d="M162.058,134.09c0.48,-0.05 0.792,-0.142 0.934,-0.267c0.146,-0.133 0.212,-0.45 0.212,-0.979l0,-6.121c0,-0.488 -0.066,-0.804 -0.204,-0.95c-0.142,-0.15 -0.458,-0.25 -0.942,-0.279l0,-0.259l6.95,0l0.038,1.975l-0.325,0c-0.117,-0.608 -0.279,-1.004 -0.5,-1.183c-0.225,-0.175 -0.713,-0.271 -1.488,-0.271l-1.77,0c-0.192,0 -0.309,0.042 -0.359,0.1c-0.033,0.071 -0.058,0.188 -0.058,0.371l-0,3.075l2.008,0c0.554,0 0.913,-0.096 1.063,-0.267c0.158,-0.17 0.279,-0.529 0.379,-1.066l0.3,-0l-0,3.183l-0.3,0c-0.104,-0.529 -0.233,-0.879 -0.383,-1.05c-0.155,-0.179 -0.509,-0.262 -1.059,-0.262l-2.008,-0l-0,3.408c-0,0.271 0.079,0.429 0.242,0.483c0.162,0.05 0.654,0.075 1.475,0.075c0.887,0 1.529,-0.1 1.958,-0.308c0.421,-0.2 0.8,-0.7 1.133,-1.483l0.367,-0l-0.596,2.329l-7.067,-0l0,-0.254Zm148.53,-0.188c0.57,-0.062 0.933,-0.187 1.095,-0.383c0.163,-0.2 0.242,-0.667 0.242,-1.396l0,-5.583c0,-0.505 -0.079,-0.825 -0.233,-0.971c-0.159,-0.154 -0.513,-0.238 -1.071,-0.271l-0,-0.258l2.729,-0l3.179,6.941l3.046,-6.941l2.738,-0l-0,0.258c-0.509,0.037 -0.834,0.125 -0.988,0.279c-0.15,0.146 -0.221,0.471 -0.221,0.963l0,6.116c0,0.496 0.071,0.825 0.221,0.971c0.154,0.138 0.479,0.225 0.988,0.275l-0,0.246l-3.855,-0l0,-0.246c0.555,-0.05 0.9,-0.146 1.034,-0.296c0.137,-0.158 0.212,-0.529 0.212,-1.112l0,-6.179l-3.521,7.833l-0.191,-0l-3.459,-7.513l0,5.488c0,0.762 0.109,1.25 0.33,1.479c0.145,0.138 0.462,0.242 0.958,0.3l-0,0.246l-3.233,-0l-0,-0.246Zm-9.225,0c0.504,-0.058 0.829,-0.146 0.979,-0.271c0.15,-0.133 0.225,-0.454 0.225,-0.975l-0,-6.116c-0,-0.492 -0.075,-0.809 -0.221,-0.963c-0.146,-0.154 -0.479,-0.242 -0.983,-0.279l-0,-0.258l7.308,-0l0.05,1.983l-0.354,-0c-0.117,-0.617 -0.292,-1.008 -0.525,-1.188c-0.229,-0.179 -0.75,-0.266 -1.559,-0.266l-1.87,-0c-0.2,-0 -0.325,0.033 -0.375,0.1c-0.05,0.062 -0.063,0.183 -0.063,0.362l0,3.075l2.113,0c0.587,0 0.962,-0.087 1.125,-0.266c0.158,-0.171 0.287,-0.53 0.391,-1.067l0.325,-0l0,3.192l-0.325,-0c-0.108,-0.538 -0.237,-0.888 -0.404,-1.05c-0.158,-0.18 -0.533,-0.267 -1.112,-0.267l-2.113,-0l0,3.408c0,0.267 0.075,0.434 0.25,0.479c0.175,0.05 0.696,0.075 1.554,0.075c0.929,0 1.621,-0.104 2.063,-0.3c0.446,-0.204 0.841,-0.7 1.2,-1.483l0.379,0l-0.621,2.321l-7.437,-0l-0,-0.246Zm-9.238,0c0.508,-0.058 0.833,-0.146 0.983,-0.271c0.15,-0.133 0.23,-0.454 0.23,-0.975l-0,-6.116c-0,-0.492 -0.075,-0.809 -0.225,-0.963c-0.142,-0.154 -0.48,-0.242 -0.988,-0.279l0,-0.258l3.892,-0l-0,0.258c-0.504,0.033 -0.846,0.108 -1.021,0.246c-0.171,0.146 -0.25,0.441 -0.25,0.896l-0,6.616c-0,0.146 0.017,0.267 0.067,0.359c0.054,0.083 0.17,0.137 0.341,0.162l0.325,0.029l0.642,0.004c1.229,0 2.054,-0.104 2.483,-0.3c0.429,-0.204 0.846,-0.716 1.25,-1.55l0.346,0l-0.667,2.388l-7.408,-0l0,-0.246Zm-9.121,-7.837c0.842,-0.805 1.884,-1.213 3.125,-1.213c1.238,0 2.279,0.408 3.129,1.221c0.921,0.879 1.38,2.054 1.38,3.525c-0,1.496 -0.475,2.679 -1.425,3.567c-0.855,0.791 -1.884,1.179 -3.084,1.179c-1.287,-0 -2.362,-0.434 -3.216,-1.313c-0.863,-0.887 -1.292,-2.029 -1.292,-3.433c-0,-1.471 0.462,-2.646 1.383,-3.533m1.021,6.745c0.575,0.688 1.275,1.034 2.104,1.034c0.813,-0 1.496,-0.338 2.071,-1.009c0.583,-0.675 0.871,-1.758 0.871,-3.237c-0,-1.5 -0.288,-2.583 -0.879,-3.25c-0.575,-0.671 -1.267,-1.004 -2.063,-1.004c-0.825,-0 -1.529,0.35 -2.104,1.041c-0.558,0.688 -0.846,1.763 -0.846,3.213c0,1.454 0.288,2.521 0.846,3.212m-10.408,-1.429c0.233,0.617 0.508,1.113 0.825,1.479c0.537,0.638 1.221,0.959 2.029,0.959c0.442,-0 0.817,-0.142 1.133,-0.413c0.329,-0.279 0.492,-0.666 0.492,-1.162c-0,-0.45 -0.163,-0.842 -0.492,-1.175c-0.208,-0.204 -0.646,-0.529 -1.329,-0.942l-1.175,-0.733c-0.354,-0.225 -0.633,-0.446 -0.846,-0.675c-0.391,-0.442 -0.583,-0.921 -0.583,-1.442c-0,-0.692 0.233,-1.271 0.692,-1.733c0.458,-0.463 1.075,-0.692 1.837,-0.692c0.308,0 0.692,0.079 1.129,0.229c0.442,0.154 0.692,0.234 0.759,0.234c0.17,-0 0.283,-0.042 0.341,-0.121c0.071,-0.079 0.121,-0.196 0.163,-0.342l0.279,0l0.304,2.921l-0.333,-0c-0.217,-0.879 -0.575,-1.496 -1.079,-1.846c-0.492,-0.35 -0.98,-0.521 -1.463,-0.521c-0.379,0 -0.708,0.113 -0.987,0.342c-0.284,0.212 -0.417,0.521 -0.417,0.917c-0,0.35 0.104,0.654 0.321,0.904c0.212,0.254 0.546,0.525 0.996,0.8l1.212,0.75c0.758,0.462 1.292,0.896 1.6,1.283c0.3,0.392 0.463,0.854 0.463,1.392c-0,0.725 -0.28,1.329 -0.825,1.812c-0.546,0.484 -1.238,0.725 -2.084,0.725c-0.421,0 -0.871,-0.079 -1.333,-0.241c-0.463,-0.163 -0.729,-0.246 -0.796,-0.246c-0.154,-0 -0.271,0.05 -0.325,0.15c-0.058,0.096 -0.096,0.2 -0.112,0.321l-0.296,-0l-0.417,-2.934l0.317,0Zm-29.538,-6.262c0.563,-0.054 0.925,-0.184 1.092,-0.375c0.158,-0.209 0.242,-0.667 0.242,-1.396l-0,-6.067l-0.188,-0.216c-0.204,-0.246 -0.375,-0.396 -0.517,-0.442c-0.141,-0.063 -0.354,-0.096 -0.629,-0.104l0,-0.254l2.35,-0l5.3,6.625l0,-4.605c0,-0.754 -0.108,-1.245 -0.329,-1.475c-0.146,-0.154 -0.475,-0.25 -0.979,-0.291l-0,-0.254l3.225,-0l-0,0.254c-0.521,0.058 -0.871,0.179 -1.042,0.383c-0.179,0.2 -0.266,0.658 -0.266,1.383l-0,7.242l-0.238,0l-6.083,-7.542l-0,5.363c-0,0.758 0.112,1.246 0.329,1.471c0.15,0.146 0.467,0.246 0.958,0.3l0,0.246l-3.225,-0l0,-0.246Zm-4.516,-0c0.554,-0.038 0.92,-0.121 1.083,-0.25c0.167,-0.121 0.258,-0.454 0.258,-0.988l0,-6.125c0,-0.504 -0.091,-0.829 -0.258,-0.971c-0.163,-0.15 -0.529,-0.233 -1.083,-0.266l-0,-0.254l4.066,-0l0,0.254c-0.558,0.033 -0.929,0.116 -1.091,0.266c-0.159,0.142 -0.242,0.467 -0.242,0.971l-0,6.125c-0,0.534 0.083,0.867 0.242,0.988c0.162,0.129 0.533,0.212 1.091,0.25l0,0.246l-4.066,-0l-0,-0.246Zm-18.392,9.225l-0,-0.254c0.342,-0.042 0.587,-0.171 0.758,-0.405c0.167,-0.225 0.454,-0.841 0.867,-1.858l2.725,-6.754l0.254,-0l3.254,7.804c0.221,0.521 0.392,0.838 0.521,0.963c0.129,0.125 0.35,0.208 0.65,0.25l0,0.254l-3.317,-0l0,-0.254c0.38,-0.034 0.63,-0.08 0.738,-0.125c0.108,-0.055 0.162,-0.18 0.162,-0.38c0,-0.075 -0.012,-0.187 -0.062,-0.358c-0.042,-0.171 -0.1,-0.35 -0.179,-0.537l-0.538,-1.325l-3.425,-0c-0.341,0.904 -0.546,1.45 -0.612,1.65c-0.063,0.195 -0.096,0.358 -0.096,0.47c-0,0.238 0.087,0.4 0.267,0.488c0.116,0.046 0.32,0.092 0.629,0.117l-0,0.254l-2.596,-0Zm5.646,-3.534l-1.513,-3.795l-1.496,3.795l3.009,0Zm-14.013,3.28c0.504,-0.05 0.813,-0.146 0.938,-0.305c0.121,-0.158 0.183,-0.525 0.183,-1.095l0,-5.967c0,-0.479 -0.071,-0.796 -0.212,-0.942c-0.138,-0.154 -0.442,-0.254 -0.909,-0.287l0,-0.259l3.621,0c0.75,0 1.375,0.1 1.879,0.3c0.954,0.384 1.425,1.084 1.425,2.109c0,0.683 -0.208,1.212 -0.637,1.579c-0.421,0.367 -0.992,0.612 -1.725,0.725l2.704,3.487c0.158,0.217 0.325,0.371 0.492,0.467c0.166,0.1 0.379,0.163 0.637,0.188l0,0.254l-2.108,-0l-3.117,-4.234l-0.721,0.034l0,2.7c0,0.512 0.067,0.837 0.217,0.979c0.146,0.137 0.467,0.225 0.971,0.267l-0,0.254l-3.638,-0l0,-0.254Zm4.467,-4.767c0.692,-0.304 1.037,-0.867 1.037,-1.696c0,-0.796 -0.312,-1.342 -0.929,-1.629c-0.333,-0.163 -0.775,-0.242 -1.321,-0.242c-0.37,0 -0.604,0.029 -0.675,0.092c-0.091,0.054 -0.129,0.179 -0.129,0.387l0,3.4c0.938,-0.045 1.613,-0.141 2.017,-0.312m-8.188,-0.229c0.546,-0.275 0.825,-0.759 0.825,-1.45c0,-0.821 -0.32,-1.375 -0.954,-1.659c-0.354,-0.158 -0.891,-0.237 -1.608,-0.237c-0.271,-0 -0.442,0.025 -0.508,0.075c-0.059,0.046 -0.096,0.183 -0.096,0.404l-0,3.1l1.241,-0.017c0.442,-0.008 0.809,-0.087 1.1,-0.216m-4.925,4.996c0.521,-0.025 0.867,-0.117 1.021,-0.25c0.163,-0.15 0.234,-0.475 0.234,-0.996l-0,-6.121c-0,-0.496 -0.071,-0.829 -0.234,-0.967c-0.154,-0.154 -0.5,-0.241 -1.021,-0.262l0,-0.259l3.663,0c1.046,0 1.883,0.18 2.492,0.53c0.616,0.35 0.929,0.958 0.929,1.825c-0,0.658 -0.221,1.15 -0.654,1.487c-0.234,0.196 -0.6,0.35 -1.088,0.479c0.604,0.146 1.113,0.4 1.546,0.759c0.412,0.358 0.633,0.858 0.633,1.495c0,1.075 -0.471,1.809 -1.421,2.209c-0.495,0.216 -1.108,0.325 -1.837,0.325l-4.263,-0l0,-0.254Zm5.342,-0.655c0.45,-0.275 0.675,-0.8 0.675,-1.57c0,-0.771 -0.267,-1.305 -0.787,-1.584c-0.534,-0.279 -1.2,-0.425 -2.017,-0.425l-0.388,0l-0.241,-0.008l-0,3.433c-0,0.238 0.066,0.392 0.196,0.459c0.12,0.07 0.416,0.1 0.883,0.1c0.671,-0 1.225,-0.134 1.679,-0.405m-17.042,0.655c0.538,-0.059 0.888,-0.18 1.042,-0.384c0.15,-0.204 0.229,-0.658 0.229,-1.383l0,-5.6c0,-0.496 -0.075,-0.821 -0.221,-0.967c-0.154,-0.154 -0.487,-0.241 -1.016,-0.262l-0,-0.259l2.587,0l3.021,6.942l2.888,-6.942l2.612,0l0,0.259c-0.487,0.029 -0.8,0.129 -0.942,0.279c-0.141,0.146 -0.212,0.462 -0.212,0.95l-0,6.121c-0,0.504 0.071,0.829 0.212,0.975c0.142,0.141 0.455,0.229 0.942,0.271l0,0.254l-3.671,-0l0,-0.254c0.529,-0.042 0.859,-0.142 0.984,-0.288c0.129,-0.154 0.195,-0.529 0.195,-1.112l0,-6.18l-3.341,7.834l-0.179,-0l-3.288,-7.517l0,5.496c0,0.75 0.104,1.237 0.313,1.467c0.141,0.154 0.441,0.25 0.912,0.3l0,0.254l-3.067,-0l0,-0.254Zm-5.704,-8.855l0,0.259c-0.496,0.029 -0.825,0.125 -0.975,0.262c-0.146,0.146 -0.221,0.471 -0.221,0.967l0,4.404c0,0.725 0.092,1.283 0.28,1.688c0.35,0.737 1.008,1.104 1.991,1.104c1.054,-0 1.775,-0.375 2.142,-1.129c0.208,-0.417 0.304,-1.071 0.304,-1.946l0,-3.588c0,-0.741 -0.083,-1.221 -0.25,-1.404c-0.171,-0.187 -0.496,-0.308 -0.971,-0.358l0,-0.259l3.025,0l0,0.259c-0.504,0.05 -0.837,0.183 -0.996,0.383c-0.154,0.204 -0.229,0.663 -0.229,1.379l0,3.588c0,0.941 -0.137,1.683 -0.412,2.221c-0.517,0.975 -1.488,1.47 -2.913,1.47c-1.412,0 -2.375,-0.487 -2.887,-1.45c-0.275,-0.52 -0.413,-1.2 -0.413,-2.054l0,-4.308c0,-0.496 -0.071,-0.821 -0.225,-0.958c-0.15,-0.138 -0.462,-0.238 -0.958,-0.271l-0,-0.259l3.708,0Zm-16.721,8.855c0.35,-0.042 0.617,-0.134 0.8,-0.288c0.188,-0.154 0.546,-0.592 1.088,-1.292l2.046,-2.645l-1.446,-2.213c-0.633,-0.95 -1.075,-1.546 -1.329,-1.779c-0.25,-0.233 -0.584,-0.363 -1.009,-0.379l0,-0.259l3.946,0l0,0.259c-0.379,0.012 -0.629,0.033 -0.737,0.075c-0.171,0.062 -0.267,0.187 -0.267,0.387c0,0.125 0.046,0.271 0.129,0.45c0.046,0.088 0.104,0.188 0.175,0.309l1.371,2.07l1.483,-1.891c0.217,-0.284 0.363,-0.5 0.438,-0.667c0.046,-0.096 0.071,-0.192 0.071,-0.267c-0,-0.204 -0.088,-0.333 -0.275,-0.4c-0.125,-0.045 -0.334,-0.066 -0.629,-0.066l-0,-0.259l3.1,0l-0,0.259c-0.35,0.008 -0.621,0.066 -0.809,0.175c-0.304,0.175 -0.675,0.546 -1.125,1.129l-1.921,2.487l2.509,3.788c0.266,0.408 0.491,0.667 0.671,0.771c0.175,0.116 0.441,0.196 0.783,0.246l-0,0.254l-3.875,-0l-0,-0.271c0.367,-0.008 0.629,-0.05 0.775,-0.1c0.154,-0.063 0.217,-0.171 0.217,-0.338c-0,-0.145 -0.096,-0.379 -0.288,-0.712c-0.2,-0.329 -0.737,-1.183 -1.629,-2.563l-1.542,2.063c-0.225,0.292 -0.379,0.521 -0.475,0.654c-0.141,0.225 -0.212,0.383 -0.212,0.492c-0,0.196 0.112,0.333 0.329,0.416c0.133,0.046 0.358,0.088 0.679,0.105l0,0.254l-3.042,-0l0,-0.254Z" style="fill:#12140f;fill-rule:nonzero;"/></svg>